<?xml version="1.0" encoding="utf-8"?>
<!-- Generator: Adobe Illustrator 19.0.0, SVG Export Plug-In . SVG Version: 6.00 Build 0)  -->
<svg version="1.1" id="图层_1" xmlns="http://www.w3.org/2000/svg" xmlns:xlink="http://www.w3.org/1999/xlink" x="0px" y="0px"
	 viewBox="0 0 143.4 123.7" style="enable-background:new 0 0 143.4 123.7;" xml:space="preserve">
<style type="text/css">
	.st0{fill:#EAEEF0;}
	.st1{fill:#D1D5D6;}
	.st2{fill:#E2E6E6;}
	.st3{fill:#818485;}
	.st4{fill:#E25D4F;}
</style>
<g id="XMLID_5_">
	<path id="XMLID_398_" class="st0" d="M9.5,9.5c2.8-2.9,5.7-5.7,8.4-8.7c1.1-1.1,1.7-0.8,2.6,0.1c2.5,2.6,5.1,5.2,7.6,7.8
		c0.9,1.2,0,1.9-0.8,2.7c-2.3,2.4-4.7,4.8-7,7.2c-2.4,0.7-1.1,2.6-1.1,3.9c0,1.5,1.5,0.8,2.3,0.9c1.8,0.1,3.5,0.1,5.3,0.1
		c-0.9,1.7-3.1,2.5-3.6,4.6c-1.4,0.7-4.2-1.4-4.2,2.4c0.1,9.6,0.1,19.3,0,28.9c0,1.9,0.6,2.3,2.4,2.3c11.9-0.1,23.8-0.1,35.7,0
		c2.2,0,2.6-0.8,2.6-2.8c-0.1-6.1,0-12.1,0.1-18.2c2-0.2,2.5-2.9,4.7-3l0,0c0,5.3-0.6,4.7,4.8,4.8c3.4,0,6.8,0,10.1,0
		c-0.9,1.8-3.2,2.5-3.6,4.7c-3,0-6,0.1-8.9,0c-1.8-0.1-2.4,0.6-2.4,2.4c0,1.8,0.6,2.4,2.4,2.4c5-0.1,9.9,0,14.9,0
		c-0.9,1.8-3.2,2.5-3.6,4.7c-3.7,0-7.4,0.1-11,0c-1.8,0-2.8,0.3-2.8,2.4c0,2.1,1,2.5,2.8,2.4c1.7-0.1,3.4,0,5.1,0
		c-0.9,1.8-3.2,2.5-3.6,4.7c-1.5,0-3,0-4.5,0c-14,0-28,0-42.1-0.1c-2,0-3.2,0.3-3.1,2.7c0.1,2.4,1.6,2.1,3.1,2.1c17.5,0,35,0,52.5,0
		c-0.9,1.8-3.2,2.5-3.6,4.7c-7.3,0-14.5,0-21.8,0c-9.2,0-18.3,0.1-27.5,0c-2.1,0-2.8,0.7-2.7,2.7c0,2.4,1.6,2.1,3,2.1
		c18.3,0,36.6,0,54.9,0c-0.9,1.8-3.2,2.5-3.6,4.7c-17.1,0-34.2,0.1-51.3,0c-2.3,0-3.1,0.6-3.1,3c0.2,5.2,0,10.3,0,15.5
		c0,6.5-0.6,5.2,5.4,5.4c-3.2,3.3-6.5,6.6-9.6,10c-1.3,1.3-3,2.3-3.5,4.2c-1.6,0-3.2,0-4.7,0c2.3-1.4,3-3.4,3-6
		c-0.1-17.3,0-34.6,0-51.9C9.6,47,9.5,28.3,9.5,9.5z"/>
	<path id="XMLID_397_" class="st1" d="M9.5,9.5c0,18.8,0.1,37.5,0.1,56.3c0,17.3,0,34.6,0,51.9c0,2.7-0.7,4.6-3,6
		c-4.8,0.2-6.6-1.4-6.6-6.1c0-32.2,0-64.3,0-96.5c0-1.6,0.3-2.8,1.6-3.9C4.3,14.7,6.8,12,9.5,9.5z"/>
	<path id="XMLID_396_" class="st0" d="M143.2,18.7c0,3,0,6,0,8.9c-4,2.7-7.4,6.1-10.1,10.1c-22.9,0-45.8,0-68.6,0.1l0,0
		c0.1-2.1,2.8-2.6,3-4.7c21.1,0,42.2-0.1,63.2,0c2.3,0,3.4-0.6,3-3c-0.1-0.6,0-1.2,0-1.8C136.2,24.3,139.4,21.2,143.2,18.7z"/>
	<path id="XMLID_395_" class="st0" d="M61.8,4.2c0.2,0.1,0.4,0.2,0.5,0.3c1.5,1.4,3,4,4.5,4c2,0,3.4-2.7,5-4.3c5-4.9,5-4.9,9.6,0.4
		c-0.8,0.9-1.5,1.9-2.3,2.7c-3.6,3.7-7.3,7.5-11,11.2c-7,0-13.9,0-20.9,0C51.9,13.7,56.5,8.6,61.8,4.2z"/>
	<path id="XMLID_394_" class="st0" d="M143.2,102.3c0,3,0,6,0,8.9c-1.5,0.2-2.3,1.5-3.2,2.5c-3,3.4-6.9,5.9-9.2,10c-3,0-6,0-8.9,0
		c0-0.9,0.6-1.4,1.2-2c6.1-6.1,12.2-12.2,18.2-18.2C141.8,102.9,142.4,102.3,143.2,102.3z"/>
	<path id="XMLID_393_" class="st0" d="M104.8,9c2.9-1.9,5.2-4.6,7.5-7.1c1.9-2,3.2-2.2,4.7,0.1c0.4,0.6,0.9,1,1.3,1.6
		c-0.8,0.9-1.4,1.9-2.3,2.7c-4,4.2-8.1,8.3-12.2,12.4c-3,0-6,0-8.9,0C98.1,15.3,101.1,11.8,104.8,9z"/>
	<path id="XMLID_392_" class="st0" d="M40.5,2c1.3,1.3,2.6,2.6,3.8,3.9c-0.7,0.8-1.3,1.7-2.1,2.5c-3.3,3.4-6.7,6.8-10,10.2
		c-3,0-6,0-9,0C28.5,13.3,33.7,8,38.9,2.8C39.3,2.4,40,2.3,40.5,2z"/>
	<path id="XMLID_391_" class="st0" d="M136,2c1.3,1.3,2.6,2.6,3.8,3.9c-0.7,0.8-1.3,1.7-2.1,2.5c-3.3,3.4-6.7,6.8-10,10.2
		c-3,0-6,0-9,0C124,13.3,129.2,8,134.5,2.8C134.9,2.4,135.5,2.3,136,2z"/>
	<path id="XMLID_390_" class="st0" d="M46.3,7.8c1.1,1.1,1.9,1.1,3.1-0.1c1.7-2,3.9-3.6,5.5-5.7c2-2.5,3.5-2.3,5,0.3
		c-0.8,0.9-1.5,1.9-2.3,2.7c-4.4,4.5-8.9,9.1-13.4,13.6c-3,0-6,0-8.9,0C38.8,14.9,42.2,11,46.3,7.8z"/>
	<path id="XMLID_389_" class="st0" d="M23.3,123.7c-3,0-6,0-8.9,0c2.4-4.3,6.6-6.9,9.7-10.5c1-1.2,2.6-1.9,2.8-3.7
		c3.2,0,6.4,0,9.5,0c-3.2,3.3-6.5,6.6-9.6,10C25.6,120.7,23.8,121.7,23.3,123.7z"/>
	<path id="XMLID_388_" class="st0" d="M71.1,123.7c-3,0-6,0-8.9,0c2.4-4.3,6.6-6.9,9.7-10.5c1-1.2,2.6-1.9,2.8-3.7
		c3.2,0,6.4,0,9.5,0c-3.2,3.3-6.5,6.6-9.6,10C73.3,120.7,71.5,121.7,71.1,123.7z"/>
	<path id="XMLID_387_" class="st0" d="M59.1,123.7c-3,0-6,0-8.9,0c2.4-4.3,6.6-6.9,9.7-10.5c1-1.2,2.6-1.9,2.8-3.7
		c3.2,0,6.4,0,9.5,0c-3.2,3.3-6.5,6.6-9.6,10C61.4,120.7,59.6,121.7,59.1,123.7z"/>
	<path id="XMLID_386_" class="st0" d="M35.2,123.7c-3,0-6,0-8.9,0c2.4-4.3,6.6-6.9,9.7-10.5c1-1.2,2.6-1.9,2.8-3.7
		c3.2,0,6.4,0,9.5,0c-3.2,3.3-6.5,6.6-9.6,10C37.5,120.7,35.7,121.7,35.2,123.7z"/>
	<path id="XMLID_385_" class="st0" d="M47.2,123.7c-3,0-6,0-8.9,0c2.4-4.3,6.6-6.9,9.7-10.5c1-1.2,2.6-1.9,2.8-3.7
		c3.2,0,6.4,0,9.5,0c-3.2,3.3-6.5,6.6-9.6,10C49.4,120.7,47.7,121.7,47.2,123.7z"/>
	<path id="XMLID_384_" class="st0" d="M118.8,123.7c-3,0-6,0-8.9,0c0.1-1.2,1.1-1.8,1.8-2.6c3.8-3.9,7.6-7.7,11.3-11.5
		c3,0,6,0,8.9,0c-3.2,3.3-6.5,6.5-9.6,9.9C121.1,120.8,119.3,121.7,118.8,123.7z"/>
	<path id="XMLID_383_" class="st0" d="M83,123.7c-3,0-6,0-8.9,0c2.4-4.3,6.6-6.9,9.7-10.5c1-1.2,2.6-1.9,2.8-3.7c3,0,6,0,8.9-0.1
		c-0.6,2.4-2.8,3.4-4.2,5.1C88.7,117.7,85,120,83,123.7z"/>
	<path id="XMLID_382_" class="st0" d="M95,123.7c-3,0-6,0-8.9,0c0-0.9,0.6-1.4,1.2-2c3.7-3.7,7.3-7.3,11-11c0.6-0.6,1.3-1.3,2.3-1.3
		c2.6,0,5.1,0.1,7.7,0.1c-3.2,3.3-6.5,6.5-9.6,9.9C97.2,120.8,95.4,121.7,95,123.7z"/>
	<path id="XMLID_381_" class="st0" d="M106.9,123.7c-3,0-6,0-8.9,0c0.1-1.2,1.1-1.8,1.8-2.6c3.8-3.9,7.6-7.7,11.3-11.5
		c3,0,6,0,8.9,0c-3.2,3.3-6.5,6.5-9.6,9.9C109.1,120.8,107.4,121.7,106.9,123.7z"/>
	<path id="XMLID_380_" class="st0" d="M98.8,3.1c1.3,1.3,2.7,2.7,4,4c-3.2,4.3-7.5,7.4-10.9,11.5c-3,0-6,0-8.9,0
		C88.1,13.3,93.1,7.8,98.8,3.1z"/>
	<path id="XMLID_379_" class="st0" d="M83.3,6.6c2,2.5,3.7,2.2,5.6-0.3c1.6-2.1,3.7-3.7,5.6-5.7c1.1-1.2,1.8-0.7,2.4,0.4
		C96.1,2,95.4,3,94.6,3.8c-4.8,4.9-9.7,9.9-14.6,14.8c-3,0-6,0-8.9,0C75,14.5,78.8,10.2,83.3,6.6z"/>
	<path id="XMLID_378_" class="st0" d="M143.2,30.6c0,3,0,6,0,8.9c-2.2,0.6-3.1,2.7-4.7,3.9c-1.6,1.3-2.5,3.4-4.8,3.9
		c-2.6,0-5.1,0-7.7,0c0.9-1.8,3.2-2.5,3.6-4.7c4.8-0.2,4,0.3,4.2-4.2c1.6-0.2,2.3-1.7,3.5-2.6C139.3,34.1,140.6,31.6,143.2,30.6z"/>
	<path id="XMLID_377_" class="st0" d="M143.2,42.6c0,3,0,6,0,8.9c-1.2,0.1-1.8,1.1-2.6,1.8c-2.3,2.2-4.6,4.4-6.8,6.5
		c0.3-2.3-0.6-3.3-3-3c-0.8,0.1-1.6,0-2.4,0c0.9-1.8,3.2-2.5,3.6-4.7c1.3,0.1,1.9-0.5,1.8-1.8c1.6-0.2,2.3-1.7,3.5-2.6
		C139.3,46.1,140.6,43.5,143.2,42.6z"/>
	<path id="XMLID_376_" class="st0" d="M120.3,5.4c1.1,1.1,2.2,2.2,3.3,3.3c0.9,1.2,0,1.9-0.8,2.7c-2.3,2.4-4.7,4.8-7,7.2
		c-3,0-6,0-8.9,0C111.2,14.1,115.4,9.4,120.3,5.4z"/>
	<path id="XMLID_375_" class="st0" d="M143.2,54.5c0,3,0,6,0,8.9c-2.2,0.6-3.1,2.7-4.7,3.9c-1.6,1.2-2.5,3.4-4.7,3.8
		c-0.3-2,1.4-5.3-3-4.8c2.4-2.5,4.7-5,7.2-7.4C139.6,57.4,140.8,55.3,143.2,54.5z"/>
	<path id="XMLID_374_" class="st0" d="M141.8,7.8c2.8,2.2,1.1,5.2,1.4,7.9c-2.3,0.7-3.4,3-5.1,4.4c-1.5,1.1-2.2,3.1-4.4,3.4
		c-0.2-2.1,1.4-5.2-2.9-4.8C134.3,14.9,137.7,11,141.8,7.8z"/>
	<path id="XMLID_373_" class="st0" d="M143.2,66.5c0,3,0,6,0,8.9c-1.2,0.1-1.8,1.1-2.6,1.8c-2.3,2.2-4.5,4.4-6.8,6.5
		c0-2.6-0.1-5.1-0.1-7.7C136.1,72.1,139.4,69,143.2,66.5z"/>
	<path id="XMLID_372_" class="st0" d="M143.2,78.4c0,3,0,6,0,8.9c-1.2,0.1-1.8,1.1-2.6,1.8c-2.3,2.2-4.5,4.4-6.8,6.5c0-3,0-6,0-8.9
		c0.9-0.9,1.8-1.8,2.8-2.6C138.9,82.3,140.4,79.5,143.2,78.4z"/>
	<path id="XMLID_371_" class="st0" d="M143.2,90.3c0,3,0,6,0,8.9c-1.2,0.1-1.8,1.1-2.6,1.8c-2.3,2.2-4.5,4.4-6.8,6.5c0-3,0-6,0-8.9
		c0.9-0.9,1.8-1.8,2.8-2.6C138.9,94.2,140.4,91.5,143.2,90.3z"/>
	<path id="XMLID_368_" class="st2" d="M130.8,123.7c2.3-4,6.2-6.6,9.2-10c0.9-1,1.7-2.3,3.2-2.5
		C143.7,120.3,139.8,124.2,130.8,123.7z"/>
	<path id="XMLID_367_" class="st2" d="M133.9,107.6c2.3-2.2,4.5-4.4,6.8-6.5c0.8-0.7,1.4-1.7,2.6-1.8c0,1,0,2,0,3
		c-0.9,0-1.4,0.6-2,1.2c-6.1,6.1-12.2,12.2-18.2,18.2c-0.6,0.6-1.1,1.1-1.2,2c-1,0-2,0-3,0c0.5-2,2.2-2.9,3.5-4.2
		c3.2-3.3,6.4-6.6,9.6-9.9C133.3,109.6,134,109,133.9,107.6z"/>
	<path id="XMLID_366_" class="st1" d="M115.9,18.6c2.3-2.4,4.7-4.8,7-7.2c0.8-0.8,1.7-1.5,0.8-2.7c1.8,0.1,2.4-1.6,3.4-2.5
		c1.6-1.4,3.3-2.9,4.6-4.6c1.8-2.3,3.1-1.8,4.4,0.4c-0.5,0.3-1.2,0.4-1.5,0.8C129.2,8,124,13.3,118.8,18.6
		C117.8,18.6,116.8,18.6,115.9,18.6z"/>
	<path id="XMLID_365_" class="st1" d="M40.5,2c-0.5,0.3-1.2,0.4-1.5,0.8C33.7,8,28.5,13.3,23.3,18.6c-1,0-2,0-3,0
		c2.3-2.4,4.7-4.8,7-7.2c0.8-0.8,1.7-1.5,0.8-2.7c1.8,0.1,2.4-1.6,3.4-2.5c1.6-1.4,3.3-2.9,4.6-4.6C37.9-0.7,39.2-0.2,40.5,2z"/>
	<path id="XMLID_364_" class="st2" d="M100.4,109.4c-1,0-1.6,0.7-2.3,1.3c-3.7,3.7-7.3,7.3-11,11c-0.6,0.6-1.2,1.1-1.2,2
		c-1,0-2,0-3,0c2-3.7,5.6-6,8.3-9.1c1.4-1.7,3.7-2.7,4.2-5.1l0,0c2.2-0.3,2.9-2.6,4.7-3.6C100.3,107,100.3,108.2,100.4,109.4z"/>
	<path id="XMLID_363_" class="st2" d="M80,18.6c4.9-4.9,9.7-9.8,14.6-14.8C95.4,3,96.1,2,96.9,1.1c0.6,0.6,1.3,1.3,1.9,1.9
		C93.1,7.8,88.1,13.3,83,18.6C82,18.6,81,18.6,80,18.6z"/>
	<path id="XMLID_362_" class="st2" d="M44.2,18.6c4.5-4.5,8.9-9,13.4-13.6c0.8-0.8,1.5-1.8,2.3-2.7c0.6,0.6,1.3,1.3,1.9,1.9
		c-5.3,4.4-9.9,9.4-14.6,14.3C46.2,18.6,45.2,18.6,44.2,18.6z"/>
	<path id="XMLID_361_" class="st2" d="M111.1,109.5c-3.8,3.8-7.6,7.7-11.3,11.5c-0.7,0.8-1.7,1.4-1.8,2.6c-1,0-2,0-3,0
		c0.5-2,2.2-2.9,3.5-4.2c3.2-3.3,6.4-6.6,9.6-9.9C109.1,109.5,110.1,109.5,111.1,109.5z"/>
	<path id="XMLID_360_" class="st2" d="M106.9,123.7c0.5-2,2.2-2.9,3.5-4.2c3.2-3.3,6.4-6.6,9.6-9.9c1,0,2,0,3,0
		c-3.8,3.8-7.6,7.7-11.3,11.5c-0.7,0.8-1.7,1.4-1.8,2.6C108.9,123.7,107.9,123.7,106.9,123.7z"/>
	<path id="XMLID_359_" class="st2" d="M47.2,123.7c0.5-2,2.3-2.9,3.5-4.2c3.2-3.4,6.4-6.6,9.6-10c0.8,0,1.6,0,2.4,0
		c-0.3,1.7-1.8,2.5-2.8,3.7c-3.1,3.6-7.3,6.3-9.7,10.5C49.2,123.7,48.2,123.7,47.2,123.7z"/>
	<path id="XMLID_358_" class="st2" d="M59.1,123.7c0.5-2,2.3-2.9,3.5-4.2c3.2-3.4,6.4-6.6,9.6-10c0.8,0,1.6,0,2.4,0
		c-0.3,1.7-1.8,2.5-2.8,3.7c-3.1,3.6-7.3,6.3-9.7,10.5C61.1,123.7,60.1,123.7,59.1,123.7z"/>
	<path id="XMLID_357_" class="st2" d="M38.9,109.5c-0.3,1.7-1.8,2.5-2.8,3.7c-3.1,3.6-7.3,6.3-9.7,10.5c-1,0-2,0-3,0
		c0.5-2,2.3-2.9,3.5-4.2c3.2-3.4,6.4-6.6,9.6-10C37.2,109.5,38.1,109.5,38.9,109.5z"/>
	<path id="XMLID_356_" class="st2" d="M26.9,109.5c-0.3,1.7-1.8,2.5-2.8,3.7c-3.1,3.6-7.3,6.3-9.7,10.5c-1,0-2,0-3,0
		c0.5-2,2.3-2.9,3.5-4.2c3.2-3.4,6.4-6.6,9.6-10C25.3,109.5,26.1,109.5,26.9,109.5z"/>
	<path id="XMLID_355_" class="st2" d="M120.3,5.4c-4.9,4-9.1,8.6-13.4,13.1c-1,0-2,0-3,0c4.1-4.1,8.1-8.3,12.2-12.4
		c0.8-0.8,1.5-1.8,2.3-2.7C119,4.2,119.7,4.8,120.3,5.4z"/>
	<path id="XMLID_354_" class="st2" d="M50.8,109.5c-0.3,1.7-1.8,2.5-2.8,3.7c-3.1,3.6-7.3,6.3-9.7,10.5c-1,0-2,0-3,0
		c0.5-2,2.3-2.9,3.5-4.2c3.2-3.4,6.4-6.6,9.6-10C49.2,109.5,50,109.5,50.8,109.5z"/>
	<path id="XMLID_353_" class="st2" d="M86.6,109.5c-0.3,1.7-1.8,2.5-2.8,3.7c-3.1,3.6-7.3,6.3-9.7,10.5c-1,0-2,0-3,0
		c0.5-2,2.3-2.9,3.5-4.2c3.2-3.4,6.4-6.6,9.6-10C85,109.5,85.8,109.5,86.6,109.5z"/>
	<path id="XMLID_352_" class="st2" d="M143.2,54.5c-2.4,0.8-3.6,2.9-5.3,4.5c-2.5,2.4-4.8,4.9-7.2,7.4c-0.8,0-1.6,0-2.4,0
		c0.4-2.2,2.7-2.9,3.6-4.7c1.3,0.1,1.9-0.5,1.8-1.8c2.3-2.2,4.5-4.4,6.8-6.5c0.8-0.7,1.4-1.7,2.6-1.8
		C143.2,52.5,143.2,53.5,143.2,54.5z"/>
	<path id="XMLID_351_" class="st2" d="M83.3,6.6c-4.5,3.6-8.3,7.8-12.2,12c-1,0-2,0-3,0c3.7-3.7,7.3-7.4,11-11.2
		c0.8-0.8,1.5-1.8,2.3-2.7C82,5.3,82.6,6,83.3,6.6z"/>
	<path id="XMLID_350_" class="st2" d="M143.2,66.5c-3.8,2.6-7.1,5.7-9.5,9.6c-1.2-0.1-2.4-0.1-3.5-0.2c0.9-1.7,3.2-2.5,3.6-4.7l0,0
		c2.3-0.4,3.1-2.6,4.8-3.8c1.6-1.3,2.5-3.3,4.7-3.9C143.2,64.5,143.2,65.5,143.2,66.5z"/>
	<path id="XMLID_349_" class="st2" d="M133.7,23.4c2.1-0.2,2.9-2.2,4.4-3.4c1.8-1.4,2.8-3.6,5.1-4.4c0,1,0,2,0,3
		c-3.8,2.6-7.1,5.6-9.5,9.6c-1,0-2,0-3-0.1C130.9,26.1,133.7,25.6,133.7,23.4L133.7,23.4z"/>
	<path id="XMLID_348_" class="st2" d="M141.8,7.8c-4.1,3.2-7.5,7-11,10.8c-1,0-2,0-3,0c3.3-3.4,6.7-6.8,10-10.2
		c0.8-0.8,1.4-1.7,2.1-2.5C140.5,6.5,141.1,7.2,141.8,7.8z"/>
	<path id="XMLID_347_" class="st2" d="M46.3,7.8c-4.1,3.2-7.5,7-11,10.8c-1,0-2,0-3,0c3.3-3.4,6.7-6.8,10-10.2
		c0.8-0.8,1.4-1.7,2.1-2.5C45,6.5,45.6,7.2,46.3,7.8z"/>
	<path id="XMLID_346_" class="st2" d="M92,18.6c3.4-4.1,7.7-7.2,10.9-11.5c0.6,0.6,1.3,1.3,1.9,1.9c-3.7,2.8-6.7,6.2-9.8,9.6
		C94,18.6,93,18.6,92,18.6z"/>
	<path id="XMLID_345_" class="st2" d="M143.2,30.6c-2.7,0.9-3.9,3.5-6,5.1c-1.1,0.9-1.8,2.4-3.5,2.6c-0.2-0.2-0.4-0.4-0.7-0.7
		c2.7-4,6.1-7.4,10.1-10.1C143.2,28.6,143.2,29.6,143.2,30.6z"/>
	<path id="XMLID_344_" class="st2" d="M143.2,78.4c-2.9,1.1-4.3,3.9-6.6,5.8c-1,0.8-1.9,1.7-2.8,2.6c0-1,0-2,0-3
		c2.3-2.2,4.5-4.4,6.8-6.5c0.8-0.7,1.4-1.7,2.6-1.8C143.2,76.4,143.2,77.4,143.2,78.4z"/>
	<path id="XMLID_343_" class="st2" d="M143.2,90.3c-2.9,1.1-4.3,3.9-6.6,5.8c-1,0.8-1.9,1.7-2.8,2.6c0-1,0-2,0-3
		c2.3-2.2,4.5-4.4,6.8-6.5c0.8-0.7,1.4-1.7,2.6-1.8C143.2,88.3,143.2,89.3,143.2,90.3z"/>
	<path id="XMLID_342_" class="st2" d="M143.2,42.6c-2.7,0.9-3.9,3.5-6,5.2c-1.1,0.9-1.8,2.4-3.5,2.6c0-1,0-2-0.1-3
		c2.2-0.5,3.1-2.6,4.8-3.9c1.6-1.3,2.6-3.3,4.7-3.9C143.2,40.6,143.2,41.6,143.2,42.6z"/>
	<path id="XMLID_341_" class="st3" d="M59.9,40.8c0,6.1-0.2,12.1-0.1,18.2c0,1.9-0.3,2.8-2.6,2.8c-11.9-0.1-23.8-0.1-35.7,0
		c-1.8,0-2.4-0.5-2.4-2.3c0.1-9.6,0.1-19.3,0-28.9c0-3.7,2.8-1.6,4.2-2.4c1,0,2,0,3,0c3,0,6,0,8.9,0c1,0,2,0,3,0c3,0,6,0,8.9,0
		c1,0,2,0,3,0c3,0,6,0,8.9,0c0.2,0.2,0.5,0.5,0.7,0.7c0,3,0,6,0,8.9C59.8,38.8,59.8,39.8,59.9,40.8z"/>
	<path id="XMLID_337_" class="st1" d="M86.6,109.5c-0.8,0-1.6,0-2.4,0c-3.2,0-6.4,0-9.5,0c-0.8,0-1.6,0-2.4,0c-3.2,0-6.4,0-9.5,0
		c-0.8,0-1.6,0-2.4,0c-3.2,0-6.4,0-9.5,0c-0.8,0-1.6,0-2.4,0c-3.2,0-6.4,0-9.5,0c-0.8,0-1.6,0-2.4,0c-3.2,0-6.4,0-9.5,0
		c-0.8,0-1.6,0-2.4,0c-5.9-0.2-5.3,1.1-5.4-5.4c0-5.2,0.1-10.3,0-15.5c-0.1-2.4,0.7-3,3.1-3c17.1,0.1,34.2,0,51.3,0
		c0.8,0,1.6,0,2.4,0c3.2,0,6.3,0,9.5,0c0.8,0,1.6,0,2.4,0c1.6,0,3.2,0.1,4.8,0c2.4-0.2,3.1,0.7,3,3c-0.1,7-0.1,13.9-0.1,20.9l0,0
		C92.6,109.4,89.6,109.5,86.6,109.5z M81.8,90.4c-0.8,0-1.6,0-2.4,0c-17.6,0-35.2,0-52.8,0c-1.8,0-2.8,0.3-2.8,2.4
		c0,2.1,1,2.4,2.8,2.4c16.4-0.1,32.8-0.1,49.2-0.1c0.8,0,1.6,0,2.4,0c3.2,0,6.3,0,9.5,0c2.4,0.4,3.4-0.6,3-3c0.2-1.5-0.8-1.8-2-1.8
		C86.4,90.4,84.1,90.4,81.8,90.4z M57.4,104.7c10.2,0,20.5,0,30.7,0c1.8,0,2.7-0.3,2.8-2.4c0-2.2-1-2.4-2.8-2.4
		c-20.4,0-40.8,0-61.2,0c-1.7,0-3,0-3.1,2.4c0,2.5,1.4,2.4,3.1,2.4C37.1,104.7,47.2,104.7,57.4,104.7z"/>
	<path id="XMLID_336_" class="st1" d="M128.4,66.4c0.8,0,1.6,0,2.4,0c4.3-0.5,2.6,2.8,3,4.8l0,0c-14.9,0-29.8,0-44.8,0.1
		c-0.8,0-1.6,0-2.4,0c-3.2,0-6.3,0-9.5,0c-0.8,0-1.6,0-2.4,0c-17.5,0-35,0-52.5,0c-1.5,0-3,0.3-3.1-2.1c-0.1-2.4,1-2.7,3.1-2.7
		c14,0.1,28,0,42.1,0.1c1.5,0,3,0,4.5,0c0.8,0,1.6,0,2.4,0c3.2,0,6.3,0,9.5,0c0.8,0,1.6,0,2.4,0c3.2,0,6.3,0,9.5,0
		c0.8,0,1.6,0,2.4,0c3.2,0,6.3,0,9.5,0c0.8,0,1.6,0,2.4,0c3.2,0,6.3,0,9.5,0c0.8,0,1.6,0,2.4,0C122,66.4,125.2,66.4,128.4,66.4z"/>
	<path id="XMLID_335_" class="st4" d="M92,18.6c1,0,2,0,3,0c3,0,6,0,8.9,0c1,0,2,0,3,0c3,0,6,0,8.9,0c1,0,2,0,3,0c3,0,6,0,9,0
		c1,0,2,0,3,0c4.3-0.4,2.8,2.7,2.9,4.8l0,0c-1.7,0-3.4,0.1-5.1,0.1c-21,0-42,0.1-63,0.1c-1,0-2,0-3,0c-3,0-6,0-8.9,0c-1,0-2,0-3,0
		c-3,0-6,0-8.9,0c-1,0-2,0-3,0c-3,0-6,0-8.9,0c-1,0-2,0-3,0c-1.8,0-3.5,0-5.3-0.1c-0.8-0.1-2.4,0.6-2.3-0.9c0-1.3-1.3-3.2,1.1-3.9
		c1,0,2,0,3,0c3,0,6,0,9,0c1,0,2,0,3,0c3,0,6,0,8.9,0c1,0,2,0,3,0c7,0,13.9,0,20.9,0c1,0,2,0,3,0c3,0,6,0,8.9,0c1,0,2,0,3,0
		C86,18.6,89,18.6,92,18.6z"/>
	<path id="XMLID_334_" class="st1" d="M77,80.8c-18.3,0-36.6,0-54.9,0c-1.5,0-3,0.4-3-2.1c0-2.1,0.6-2.8,2.7-2.7
		c9.2,0.1,18.3,0,27.5,0c7.3,0,14.5,0,21.8,0c0.8,0,1.6,0,2.4,0c3.2,0,6.3,0,9.5,0c0.8,0,1.6,0,2.4,0c2.7,0,5.4,0.1,8,0
		c1.5,0,2,0.6,2.1,2.1c0.3,3.7-2.4,2.5-4.2,2.8c-0.8,0-1.6,0-2.4,0c-3.2,0-6.3,0-9.5,0C78.6,80.8,77.8,80.8,77,80.8z"/>
	<path id="XMLID_333_" class="st1" d="M133.7,47.4c0,1,0,2,0.1,3c0.1,1.3-0.5,1.9-1.8,1.8c-0.8,0-1.6,0-2.4,0c-3.2,0-6.3,0-9.5,0
		c-0.8,0-1.6,0-2.4,0c-3.2,0-6.3,0-9.5,0c-0.8,0-1.6,0-2.4,0c-3.2,0-6.3,0-9.5,0c-0.8,0-1.6,0-2.4,0c-3.2,0-6.3,0-9.5,0
		c-0.8,0-1.6,0-2.4,0c-5,0-9.9-0.1-14.9,0c-1.8,0-2.4-0.6-2.4-2.4c0-1.8,0.6-2.5,2.4-2.4c3,0.1,6,0,8.9,0c0.8,0,1.6,0,2.4,0
		c3.2,0,6.3,0,9.5,0c0.8,0,1.6,0,2.4,0c3.2,0,6.3,0,9.5,0c0.8,0,1.6,0,2.4,0c3.2,0,6.3,0,9.5,0c0.8,0,1.6,0,2.4,0c3.2,0,6.3,0,9.5,0
		c0.8,0,1.6,0,2.4,0C128.6,47.3,131.2,47.4,133.7,47.4z"/>
	<path id="XMLID_332_" class="st1" d="M133.8,59.9c0.1,1.3-0.5,1.9-1.8,1.8c-3.2,0-6.3,0-9.5,0c-0.8,0-1.6,0-2.4,0
		c-3.2,0-6.3,0-9.5,0c-0.8,0-1.6,0-2.4,0c-3.2,0-6.3,0-9.5,0c-0.8,0-1.6,0-2.4,0c-3.2,0-6.3,0-9.5,0c-0.8,0-1.6,0-2.4,0
		c-3.2,0-6.3,0-9.5,0c-0.8,0-1.6,0-2.4,0c-1.7,0-3.4-0.1-5.1,0c-1.8,0.1-2.8-0.3-2.8-2.4c0-2.1,1-2.5,2.8-2.4c3.7,0.1,7.3,0,11,0
		c0.8,0,1.6,0,2.4,0c3.2,0,6.3,0,9.5,0c0.8,0,1.6,0,2.4,0c3.2,0,6.3,0,9.5,0c0.8,0,1.6,0,2.4,0c3.2,0,6.3,0,9.5,0c0.8,0,1.6,0,2.4,0
		c3.2,0,6.3,0,9.5,0c0.8,0,1.6,0,2.4,0c0.8,0,1.6,0.1,2.4,0C133.2,56.6,134.1,57.6,133.8,59.9z"/>
	<path id="XMLID_331_" class="st1" d="M133.2,37.7c0.2,0.2,0.4,0.4,0.7,0.7c-0.2,4.5,0.6,4.1-4.2,4.2c-0.8,0-1.6,0-2.4,0
		c-3.2,0-6.3,0-9.5,0c-0.8,0-1.6,0-2.4,0c-3.2,0-6.3,0-9.5,0c-0.8,0-1.6,0-2.4,0c-3.2,0-6.3,0-9.5,0c-0.8,0-1.6,0-2.4,0
		c-3.2,0-6.3,0-9.5,0c-0.8,0-1.6,0-2.4,0c-3.4,0-6.8,0-10.1,0c-5.4-0.1-4.7,0.6-4.8-4.8C87.4,37.8,110.3,37.8,133.2,37.7z"/>
	<path id="XMLID_330_" class="st2" d="M59.9,40.8c0-1,0-2,0-3c2.3-0.9,3.8-2.5,4.7-4.8c1,0,2,0,3,0.1c-0.2,2.1-2.9,2.6-3,4.7
		C62.4,37.9,61.9,40.5,59.9,40.8z"/>
	<path id="XMLID_329_" class="st2" d="M26.9,23.6c1,0,2,0,3,0c-0.9,1.7-3.2,2.5-3.6,4.6c-1,0-2,0-3,0C23.8,26,25.9,25.3,26.9,23.6z"
		/>
	<path id="XMLID_328_" class="st2" d="M77,80.8c0.8,0,1.6,0,2.4,0c-0.4,2.2-2.7,2.9-3.6,4.7c-0.8,0-1.6,0-2.4,0
		C73.9,83.3,76.2,82.6,77,80.8z"/>
	<path id="XMLID_327_" class="st2" d="M79.4,42.6c0.8,0,1.6,0,2.4,0c-0.4,2.2-2.7,2.9-3.6,4.7c-0.8,0-1.6,0-2.4,0
		C76.2,45.1,78.6,44.4,79.4,42.6z"/>
	<path id="XMLID_326_" class="st2" d="M72.3,61.7c0.8,0,1.6,0,2.4,0c-0.4,2.2-2.7,2.9-3.6,4.7c-0.8,0-1.6,0-2.4,0
		C69.1,64.2,71.4,63.5,72.3,61.7z"/>
	<path id="XMLID_325_" class="st2" d="M80.6,56.9c-0.8,0-1.6,0-2.4,0c0.4-2.2,2.7-2.9,3.6-4.7c0.8,0,1.6,0,2.4,0
		C83.8,54.3,81.5,55.1,80.6,56.9z"/>
	<path id="XMLID_324_" class="st2" d="M73.5,76c-0.8,0-1.6,0-2.4,0c0.4-2.2,2.7-2.9,3.6-4.7c0.8,0,1.6,0,2.4,0
		C76.7,73.4,74.3,74.2,73.5,76z"/>
	<path id="XMLID_323_" class="st1" d="M67.5,33.1c-1,0-2,0-3-0.1c-0.1-5.5-0.3-4.7,4.5-4.7c20.6,0,41.2,0,61.7-0.1c1,0,2,0,3,0.1
		c0,0.6-0.1,1.2,0,1.8c0.3,2.4-0.7,3-3,3C109.7,33,88.6,33,67.5,33.1z"/>
	<path id="XMLID_322_" class="st4" d="M133.9,95.7c0,1,0,2,0,3c0,3,0,6,0,8.9c0.1,1.4-0.5,2-1.9,1.9c-3,0-6,0-8.9,0c-1,0-2,0-3,0
		c-3,0-6,0-8.9,0c-1,0-2,0-3,0c-2.6,0-5.1-0.1-7.7-0.1c-0.1-1.2-0.1-2.4-0.2-3.5c0-9,0.1-18.1,0-27.1c0-2.2,0.6-2.8,2.8-2.8
		c9,0.1,18.1,0,27.1,0c1.2,0.1,2.4,0.1,3.5,0.2c0,2.6,0.1,5.1,0.1,7.7c0,1,0,2,0,3C133.9,89.7,133.9,92.7,133.9,95.7z"/>
	<path id="XMLID_321_" class="st2" d="M127.2,42.6c0.8,0,1.6,0,2.4,0c-0.4,2.2-2.7,2.9-3.6,4.7c-0.8,0-1.6,0-2.4,0
		C124,45.1,126.3,44.4,127.2,42.6z"/>
	<path id="XMLID_320_" class="st2" d="M128.4,56.9c-0.8,0-1.6,0-2.4,0c0.4-2.2,2.7-2.9,3.6-4.7c0.8,0,1.6,0,2.4,0
		C131.6,54.3,129.3,55.1,128.4,56.9z"/>
	<path id="XMLID_319_" class="st0" d="M130.2,75.9c-9,0-18.1,0.1-27.1,0c-2.2,0-2.8,0.6-2.8,2.8c0.1,9,0,18.1,0,27.1
		c-1.7,0.9-2.5,3.2-4.7,3.6c0-7-0.1-13.9,0.1-20.9c0-2.4-0.7-3.3-3-3c-1.6,0.2-3.2,0-4.8,0c0.9-1.8,3.2-2.5,3.6-4.7
		c1.8-0.3,4.5,1,4.2-2.8C95.5,76.6,95,76,93.5,76c-2.7,0.1-5.4,0-8,0c0.9-1.8,3.2-2.5,3.6-4.7c14.9,0,29.8,0,44.8-0.1
		C133.4,73.4,131.1,74.2,130.2,75.9z"/>
	<path id="XMLID_318_" class="st0" d="M122.4,61.7c3.2,0,6.3,0,9.5,0c-0.9,1.8-3.2,2.5-3.6,4.7c-3.2,0-6.3,0-9.5,0
		C119.7,64.6,122,63.9,122.4,61.7z"/>
	<path id="XMLID_317_" class="st0" d="M130.8,28.2c-20.6,0-41.2,0-61.7,0.1c-4.8,0-4.5-0.8-4.5,4.7c-0.9,2.3-2.5,3.9-4.7,4.8
		c0-3,0-6,0-8.9c2.6-1.1,4-3.4,5.8-5.3c21,0,42-0.1,63-0.1c1.7,0,3.4,0,5.1-0.1C133.7,25.6,130.9,26.1,130.8,28.2z"/>
	<path id="XMLID_316_" class="st0" d="M53.8,23.6c3,0,6,0,8.9,0c-0.9,1.7-3.1,2.5-3.6,4.6c-3,0-6,0-8.9,0
		C50.6,26,52.8,25.3,53.8,23.6z"/>
	<path id="XMLID_315_" class="st0" d="M41.8,23.6c3,0,6,0,8.9,0c-0.9,1.7-3.1,2.5-3.6,4.6c-3,0-6,0-8.9,0
		C38.7,26,40.9,25.3,41.8,23.6z"/>
	<path id="XMLID_314_" class="st0" d="M26.3,28.2c0.4-2.1,2.6-2.9,3.6-4.6c3,0,6,0,8.9,0c-0.9,1.7-3.1,2.5-3.6,4.6
		C32.3,28.1,29.3,28.1,26.3,28.2z"/>
	<path id="XMLID_313_" class="st2" d="M59.1,28.1c0.5-2.1,2.6-2.8,3.6-4.6c1,0,2,0,3,0c-1.8,1.9-3.3,4.2-5.8,5.3
		C59.6,28.6,59.4,28.4,59.1,28.1z"/>
	<path id="XMLID_312_" class="st2" d="M35.2,28.1c0.5-2.1,2.6-2.8,3.6-4.6c1,0,2,0,3,0c-0.9,1.7-3.2,2.5-3.6,4.6
		C37.2,28.1,36.2,28.1,35.2,28.1z"/>
	<path id="XMLID_311_" class="st2" d="M47.2,28.1c0.5-2.1,2.6-2.8,3.6-4.6c1,0,2,0,3,0c-0.9,1.7-3.2,2.5-3.6,4.6
		C49.2,28.1,48.2,28.1,47.2,28.1z"/>
	<path id="XMLID_310_" class="st0" d="M57.4,104.7c-10.1,0-20.3,0-30.4,0c-1.7,0-3.1,0.1-3.1-2.4c0-2.4,1.3-2.4,3.1-2.4
		c20.4,0,40.8,0,61.2,0c1.7,0,2.8,0.2,2.8,2.4c0,2.1-1,2.5-2.8,2.4C77.8,104.6,67.6,104.7,57.4,104.7z"/>
	<path id="XMLID_309_" class="st0" d="M75.8,95.1c-16.4,0-32.8,0-49.2,0.1c-1.8,0-2.8-0.3-2.8-2.4c0-2.1,1-2.4,2.8-2.4
		c17.6,0,35.2,0,52.8,0C78.6,92.2,76.2,92.9,75.8,95.1z"/>
	<path id="XMLID_308_" class="st0" d="M87.8,95.1c-3.2,0-6.3,0-9.5,0c0.9-1.8,3.2-2.5,3.6-4.7c2.3,0,4.6,0,6.9-0.1
		c1.3,0,2.2,0.2,2,1.8C89.1,92.5,88.2,93.5,87.8,95.1z"/>
	<path id="XMLID_307_" class="st0" d="M75.9,85.5c0.9-1.8,3.2-2.5,3.6-4.7c3.2,0,6.3,0,9.5,0c-0.9,1.8-3.2,2.5-3.6,4.7
		C82.2,85.5,79,85.5,75.9,85.5z"/>
	<path id="XMLID_306_" class="st2" d="M85.4,85.5c0.4-2.2,2.7-2.9,3.6-4.7c0.8,0,1.6,0,2.4,0c-0.4,2.2-2.7,2.9-3.6,4.7
		C87,85.5,86.2,85.5,85.4,85.5z"/>
	<path id="XMLID_305_" class="st2" d="M81.8,90.4c-0.4,2.2-2.7,2.9-3.6,4.7c-0.8,0-1.6,0-2.4,0c0.4-2.2,2.7-2.9,3.6-4.7
		C80.2,90.4,81,90.4,81.8,90.4z"/>
	<path id="XMLID_304_" class="st2" d="M87.8,95.1c0.4-1.6,1.4-2.6,3-3C91.2,94.5,90.2,95.5,87.8,95.1z"/>
	<path id="XMLID_303_" class="st0" d="M73.5,76c0.9-1.8,3.2-2.5,3.6-4.7c3.2,0,6.3,0,9.5,0c-0.9,1.8-3.2,2.5-3.6,4.7
		C79.8,76,76.6,76,73.5,76z"/>
	<path id="XMLID_302_" class="st0" d="M98.6,61.7c3.2,0,6.3,0,9.5,0c-0.9,1.8-3.2,2.5-3.6,4.7c-3.2,0-6.3,0-9.5,0
		C95.8,64.6,98.2,63.9,98.6,61.7z"/>
	<path id="XMLID_301_" class="st0" d="M86.6,61.7c3.2,0,6.3,0,9.5,0c-0.9,1.8-3.2,2.5-3.6,4.7c-3.2,0-6.3,0-9.5,0
		C83.9,64.6,86.2,63.9,86.6,61.7z"/>
	<path id="XMLID_300_" class="st0" d="M71.1,66.4c0.9-1.8,3.2-2.5,3.6-4.7c3.2,0,6.3,0,9.5,0c-0.9,1.8-3.2,2.5-3.6,4.7
		C77.4,66.4,74.3,66.4,71.1,66.4z"/>
	<path id="XMLID_299_" class="st0" d="M110.5,61.7c3.2,0,6.3,0,9.5,0c-0.9,1.8-3.2,2.5-3.6,4.7c-3.2,0-6.3,0-9.5,0
		C107.8,64.6,110.1,63.9,110.5,61.7z"/>
	<path id="XMLID_298_" class="st2" d="M80.6,66.4c0.4-2.2,2.7-2.9,3.6-4.7c0.8,0,1.6,0,2.4,0c-0.4,2.2-2.7,2.9-3.6,4.7
		C82.2,66.4,81.4,66.4,80.6,66.4z"/>
	<path id="XMLID_297_" class="st2" d="M92.6,66.4c0.4-2.2,2.7-2.9,3.6-4.7c0.8,0,1.6,0,2.4,0c-0.4,2.2-2.7,2.9-3.6,4.7
		C94.2,66.4,93.4,66.4,92.6,66.4z"/>
	<path id="XMLID_296_" class="st2" d="M110.5,61.7c-0.4,2.2-2.7,2.9-3.6,4.7c-0.8,0-1.6,0-2.4,0c0.4-2.2,2.7-2.9,3.6-4.7
		C108.9,61.7,109.7,61.7,110.5,61.7z"/>
	<path id="XMLID_295_" class="st2" d="M116.4,66.4c0.4-2.2,2.7-2.9,3.6-4.7c0.8,0,1.6,0,2.4,0c-0.4,2.2-2.7,2.9-3.6,4.7
		C118,66.4,117.2,66.4,116.4,66.4z"/>
	<path id="XMLID_294_" class="st2" d="M83,76c0.4-2.2,2.7-2.9,3.6-4.7c0.8,0,1.6,0,2.4,0c-0.4,2.2-2.7,2.9-3.6,4.7
		C84.6,76,83.8,76,83,76z"/>
	<path id="XMLID_293_" class="st0" d="M80.6,56.9c0.9-1.8,3.2-2.5,3.6-4.7c3.2,0,6.3,0,9.5,0c-0.9,1.8-3.2,2.5-3.6,4.7
		C87,56.9,83.8,56.9,80.6,56.9z"/>
	<path id="XMLID_292_" class="st0" d="M102.1,56.9c-3.2,0-6.3,0-9.5,0c0.9-1.8,3.2-2.5,3.6-4.7c3.2,0,6.3,0,9.5,0
		C104.8,54,102.5,54.7,102.1,56.9z"/>
	<path id="XMLID_291_" class="st0" d="M129.6,52.1c-0.9,1.8-3.2,2.5-3.6,4.7c-3.2,0-6.3,0-9.5,0c0.9-1.8,3.2-2.5,3.6-4.7
		C123.2,52.2,126.4,52.1,129.6,52.1z"/>
	<path id="XMLID_290_" class="st0" d="M114,56.9c-3.2,0-6.3,0-9.5,0c0.9-1.8,3.2-2.5,3.6-4.7c3.2,0,6.3,0,9.5,0
		C116.8,54,114.5,54.7,114,56.9z"/>
	<path id="XMLID_289_" class="st0" d="M93.8,42.6c3.2,0,6.3,0,9.5,0c-0.9,1.8-3.2,2.5-3.6,4.7c-3.2,0-6.3,0-9.5,0
		C91.1,45.5,93.4,44.8,93.8,42.6z"/>
	<path id="XMLID_288_" class="st0" d="M105.7,42.6c3.2,0,6.3,0,9.5,0c-0.9,1.8-3.2,2.5-3.6,4.7c-3.2,0-6.3,0-9.5,0
		C103,45.5,105.3,44.8,105.7,42.6z"/>
	<path id="XMLID_287_" class="st0" d="M127.2,42.6c-0.9,1.8-3.2,2.5-3.6,4.7c-3.2,0-6.3,0-9.5,0c0.9-1.8,3.2-2.5,3.6-4.7
		C120.8,42.6,124,42.6,127.2,42.6z"/>
	<path id="XMLID_286_" class="st0" d="M78.3,47.3c0.9-1.8,3.2-2.5,3.6-4.7c3.2,0,6.3,0,9.5,0c-0.9,1.8-3.2,2.5-3.6,4.7
		C84.6,47.3,81.4,47.3,78.3,47.3z"/>
	<path id="XMLID_285_" class="st2" d="M108.1,52.2c-0.4,2.2-2.7,2.9-3.6,4.7c-0.8,0-1.6,0-2.4,0c0.4-2.2,2.7-2.9,3.6-4.7
		C106.5,52.1,107.3,52.2,108.1,52.2z"/>
	<path id="XMLID_284_" class="st2" d="M117.7,42.6c-0.4,2.2-2.7,2.9-3.6,4.7c-0.8,0-1.6,0-2.4,0c0.4-2.2,2.7-2.9,3.6-4.7
		C116.1,42.6,116.9,42.6,117.7,42.6z"/>
	<path id="XMLID_283_" class="st2" d="M105.7,42.6c-0.4,2.2-2.7,2.9-3.6,4.7c-0.8,0-1.6,0-2.4,0c0.4-2.2,2.7-2.9,3.6-4.7
		C104.1,42.6,104.9,42.6,105.7,42.6z"/>
	<path id="XMLID_282_" class="st2" d="M87.8,47.3c0.4-2.2,2.7-2.9,3.6-4.7c0.8,0,1.6,0,2.4,0c-0.4,2.2-2.7,2.9-3.6,4.7
		C89.4,47.3,88.6,47.3,87.8,47.3z"/>
	<path id="XMLID_281_" class="st2" d="M114,56.9c0.4-2.2,2.7-2.9,3.6-4.7c0.8,0,1.6,0,2.4,0c-0.4,2.2-2.7,2.9-3.6,4.7
		C115.7,56.9,114.9,56.9,114,56.9z"/>
	<path id="XMLID_280_" class="st2" d="M96.2,52.2c-0.4,2.2-2.7,2.9-3.6,4.7c-0.8,0-1.6,0-2.4,0c0.4-2.2,2.7-2.9,3.6-4.7
		C94.6,52.1,95.4,52.2,96.2,52.2z"/>
</g>
<g id="XMLID_15_">
</g>
<g id="XMLID_16_">
</g>
<g id="XMLID_17_">
</g>
<g id="XMLID_18_">
</g>
<g id="XMLID_19_">
</g>
<g id="XMLID_20_">
</g>
</svg>
