<?xml version="1.0" encoding="utf-8"?>
<!-- Generator: Adobe Illustrator 19.0.0, SVG Export Plug-In . SVG Version: 6.00 Build 0)  -->
<svg version="1.1" id="图层_1" xmlns="http://www.w3.org/2000/svg" xmlns:xlink="http://www.w3.org/1999/xlink" x="0px" y="0px"
	 viewBox="0 0 80.4 160.4" style="enable-background:new 0 0 80.4 160.4;" xml:space="preserve">
<style type="text/css">
	.st0{fill:#666666;}
	.st1{fill:none;}
	.st2{fill-rule:evenodd;clip-rule:evenodd;fill:#666666;}
	.st3{fill-rule:evenodd;clip-rule:evenodd;fill:none;}
	.st4{fill:#FFFFFF;}
	.st5{fill:#444444;}
</style>
<g id="XMLID_54_">
	<path id="XMLID_58_" class="st0" d="M20.5,3.6c-9.2,0-16.7,7.5-16.7,16.7S11.2,37,20.5,37s16.7-7.5,16.7-16.7S29.7,3.6,20.5,3.6z
		 M20.5,8.6c2.8,0,5,2.2,5,5s-2.2,5-5,5s-5-2.2-5-5S17.7,8.6,20.5,8.6z M20.5,32.3c-4.2,0-7.9-2.1-10-5.4c0.1-3.3,6.7-5.1,10-5.1
		c3.3,0,10,1.8,10,5.1C28.3,30.2,24.6,32.3,20.5,32.3z"/>
	<path id="XMLID_57_" class="st1" d="M0.4,0.2h40.1v40.1H0.4V0.2z"/>
</g>
<g id="XMLID_37_">
	<path id="XMLID_66_" class="st0" d="M60.1,20.3c3.7,0,6.8-3,6.8-6.8s-3-6.8-6.8-6.8c-3.7,0-6.8,3-6.8,6.8S56.4,20.3,60.1,20.3z
		 M60.1,23.7c-4.5,0-13.5,2.3-13.5,6.8v3.4h27v-3.4C73.7,25.9,64.7,23.7,60.1,23.7z"/>
	<path id="XMLID_65_" class="st1" d="M39.9,0h40.6v40.6H39.9V0z"/>
</g>
<g id="XMLID_17_">
	<path id="XMLID_15_" class="st2" d="M20,43.8c-8.8,0-16,7.2-16,16C4,66.8,8.6,72.8,14.9,75c0.8,0.1,1.1-0.3,1.1-0.8
		c0-0.4,0-1.4,0-2.7c-4.5,1-5.4-2.1-5.4-2.1C9.9,67.5,8.8,67,8.8,67C7.4,66,9,66,9,66c1.6,0.1,2.5,1.6,2.5,1.6
		c1.4,2.4,3.7,1.7,4.7,1.3c0.1-1,0.6-1.7,1-2.1c-3.6-0.4-7.3-1.8-7.3-7.9c0-1.7,0.6-3.2,1.6-4.3c-0.2-0.4-0.7-2,0.2-4.2
		c0,0,1.3-0.4,4.4,1.6c1.3-0.4,2.6-0.5,4-0.5c1.4,0,2.7,0.2,4,0.5c3.1-2.1,4.4-1.6,4.4-1.6c0.9,2.2,0.3,3.8,0.2,4.2
		c1,1.1,1.6,2.5,1.6,4.3c0,6.1-3.7,7.5-7.3,7.9c0.6,0.5,1.1,1.5,1.1,3c0,2.1,0,3.9,0,4.4c0,0.4,0.3,0.9,1.1,0.8
		C31.4,72.8,36,66.8,36,59.8C36,50.9,28.8,43.8,20,43.8z"/>
	<rect id="XMLID_16_" x="0.5" y="40.2" class="st3" width="40" height="40.1"/>
</g>
<g id="XMLID_49_">
	<path id="XMLID_51_" class="st0" d="M33.3,87H6.7c-1.8,0-3.3,1.5-3.3,3.3l0,20c0,1.8,1.5,3.3,3.3,3.3h26.7c1.8,0,3.3-1.5,3.3-3.3
		v-20C36.7,88.5,35.2,87,33.3,87z M33.3,93.6L20,102L6.7,93.6v-3.3L20,98.6l13.3-8.3V93.6z"/>
	<path id="XMLID_50_" class="st1" d="M0,80.3h40v40H0V80.3z"/>
</g>
<g id="XMLID_44_">
	<path id="XMLID_48_" class="st1" d="M40.3,80.3h40v40h-40V80.3z"/>
	<path id="XMLID_45_" class="st0" d="M68.6,82l-16.7,0c-1.8,0-3.3,1.5-3.3,3.3v30c0,1.8,1.5,3.3,3.3,3.3h16.7c1.8,0,3.3-1.5,3.3-3.3
		v-30C71.9,83.5,70.4,82,68.6,82z M68.6,112H51.9V88.6h16.7V112z"/>
</g>
<g id="XMLID_9_">
	<path id="XMLID_39_" class="st0" d="M73.6,46.9H46.9c-1.8,0-3.3,1.5-3.3,3.3l0,20c0,1.8,1.5,3.3,3.3,3.3h26.7
		c1.8,0,3.3-1.5,3.3-3.3v-20C77,48.4,75.5,46.9,73.6,46.9z M65.3,70.3H46.9v-6.7h18.4V70.3z M65.3,61.9H46.9v-6.7h18.4V61.9z
		 M73.6,70.3h-6.7v-15h6.7V70.3z"/>
	<path id="XMLID_38_" class="st1" d="M40.2,40.2h40.1v40.1H40.2V40.2z"/>
</g>
<g id="XMLID_14_">
	<g id="XMLID_13_">
		<path id="XMLID_90_" class="st4" d="M33.2,124c2.1,0,4.2,0,6.3,0c0,11.8,0,23.6,0,35.4c-11.8,0-23.6,0-35.4,0c0-2.1,0-4.2,0-6.3
			c0.5,2.1,1.8,3.5,4,3.5c4.1,0.1,8.3,0,12.4,0c0.2,0,0.5-0.2,0.5-0.3c0.3-0.7,0.4-1.5,0.7-2.3c-0.4,0-0.7,0-1,0c-4,0-8,0-12,0
			c-1.5,0-1.9-0.5-1.9-1.9c0-7.2,0-14.5,0-21.7c0-0.3,0-0.6,0-0.9c0.3,0,0.5-0.1,0.8-0.1c8.6,0,17.2,0,25.8,0c0.6,0,0.8,0.2,0.7,0.8
			c0,3.2,0,6.5,0,9.7c0,0.3,0,0.6,0,0.9c0.9-0.1,1.8-0.2,2.6-0.3c0-0.1,0.1-0.1,0.1-0.2c0-4,0-8,0-12c0-1.1-0.3-2.1-1.1-2.8
			C35,124.8,34.1,124.4,33.2,124z M31.6,146.7c-2.1,2.1-4.3,4.3-6.5,6.6c-0.1,0.1-0.3,0.3-0.3,0.5c-0.5,1.5-0.9,3.1-1.3,4.6
			c-0.2,0.7,0.1,1,0.8,0.8c4.5-1.1,4.5-1.1,7.8-4.4c0.1-0.1,0.1-0.1,0.2-0.2c1.2-1.2,2.4-2.4,3.6-3.7
			C34.5,149.6,33.1,148.2,31.6,146.7z M16.4,137.5c4.5,0,9,0,13.5,0c0-0.9,0-1.7,0-2.6c-4.5,0-9,0-13.5,0
			C16.4,135.8,16.4,136.6,16.4,137.5z M29.9,140.4c-4.5,0-9,0-13.5,0c0,0.9,0,1.7,0,2.6c4.5,0,9,0,13.5,0
			C29.9,142.1,29.9,141.3,29.9,140.4z M28.7,145.9c-4.2,0-8.2,0-12.2,0c0,0.9,0,1.7,0,2.5c0.1,0.1,0.1,0.1,0.1,0.1c3,0,6.1,0,9.1,0
			c0.2,0,0.5-0.1,0.6-0.3C27,147.5,27.8,146.8,28.7,145.9z M37.4,149.5c0.3-0.4,0.6-0.8,0.9-1.1c0.2-0.2,0.4-0.4,0.6-0.7
			c0.5-0.6,0.5-1.3-0.1-1.9c-0.7-0.8-1.4-1.5-2.2-2.2c-0.6-0.5-1.3-0.5-1.9,0c-0.6,0.5-1.2,1.1-1.8,1.6
			C34.6,146.7,35.9,148,37.4,149.5z M13.6,143c0-0.9,0-1.7,0-2.6c-0.9,0-1.7,0-2.6,0c0,0.9,0,1.7,0,2.6C11.8,143,12.7,143,13.6,143z
			 M11,137.5c0.9,0,1.7,0,2.6,0c0-0.9,0-1.7,0-2.5c-0.9,0-1.7,0-2.6,0C11,135.9,11,136.7,11,137.5z M13.6,145.9c-0.9,0-1.7,0-2.6,0
			c0,0.9,0,1.7,0,2.6c0.9,0,1.7,0,2.6,0C13.6,147.6,13.6,146.8,13.6,145.9z"/>
		<path id="XMLID_89_" class="st5" d="M33.2,124c0.8,0.4,1.7,0.8,2.4,1.3c0.8,0.7,1.1,1.8,1.1,2.8c0,4,0,8,0,12c0,0.1,0,0.1-0.1,0.2
			c-0.9,0.1-1.7,0.2-2.6,0.3c0-0.3,0-0.6,0-0.9c0-3.2,0-6.5,0-9.7c0-0.6-0.2-0.8-0.7-0.8c-8.6,0-17.2,0-25.8,0c-0.2,0-0.5,0-0.8,0.1
			c0,0.3,0,0.6,0,0.9c0,7.2,0,14.5,0,21.7c0,1.5,0.5,1.9,1.9,1.9c4,0,8,0,12,0c0.3,0,0.6,0,1,0c-0.2,0.9-0.4,1.6-0.7,2.3
			c-0.1,0.2-0.3,0.3-0.5,0.3c-4.1,0-8.3,0.1-12.4,0c-2.3,0-3.5-1.4-4-3.5c0-8.6,0-17.1,0-25.7c0.5-1.8,1.6-3,3.5-3.5
			C16.1,124,24.7,124,33.2,124z"/>
		<path id="XMLID_88_" class="st4" d="M7.6,124c-1.8,0.5-3,1.6-3.5,3.5c0-1.2,0-2.3,0-3.5C5.3,124,6.4,124,7.6,124z"/>
		<path id="XMLID_85_" class="st5" d="M31.6,146.7c1.5,1.5,2.9,2.9,4.4,4.3c-1.2,1.2-2.4,2.4-3.6,3.7c-0.1,0.1-0.1,0.1-0.2,0.2
			c-3.3,3.3-3.3,3.3-7.8,4.4c-0.7,0.2-1-0.1-0.8-0.8c0.4-1.5,0.9-3.1,1.3-4.6c0.1-0.2,0.2-0.4,0.3-0.5
			C27.3,151,29.5,148.8,31.6,146.7z M25.9,154.2c-0.3,0.9-0.5,1.7-0.7,2.5c-0.1,0.5,0.3,0.9,0.8,0.8c0.8-0.2,1.6-0.5,2.5-0.7
			c-0.1-0.7-0.2-1.3-0.4-1.9c0-0.1-0.2-0.3-0.3-0.3C27.1,154.4,26.5,154.3,25.9,154.2z"/>
		<path id="XMLID_84_" class="st5" d="M16.4,137.5c0-0.9,0-1.7,0-2.6c4.5,0,9,0,13.5,0c0,0.9,0,1.7,0,2.6
			C25.4,137.5,21,137.5,16.4,137.5z"/>
		<path id="XMLID_83_" class="st5" d="M29.9,140.4c0,0.9,0,1.7,0,2.6c-4.5,0-9,0-13.5,0c0-0.9,0-1.7,0-2.6
			C20.9,140.4,25.4,140.4,29.9,140.4z"/>
		<path id="XMLID_82_" class="st5" d="M28.7,145.9c-0.9,0.9-1.6,1.6-2.4,2.3c-0.2,0.1-0.4,0.3-0.6,0.3c-3,0-6.1,0-9.1,0
			c0,0,0,0-0.1-0.1c0-0.8,0-1.6,0-2.5C20.4,145.9,24.4,145.9,28.7,145.9z"/>
		<path id="XMLID_81_" class="st5" d="M37.4,149.5c-1.5-1.5-2.8-2.8-4.3-4.3c0.6-0.5,1.1-1.1,1.8-1.6c0.6-0.5,1.3-0.5,1.9,0
			c0.8,0.7,1.5,1.4,2.2,2.2c0.5,0.6,0.5,1.2,0.1,1.9c-0.2,0.2-0.4,0.5-0.6,0.7C38,148.7,37.7,149.1,37.4,149.5z"/>
		<path id="XMLID_80_" class="st5" d="M13.6,143c-0.9,0-1.7,0-2.6,0c0-0.9,0-1.7,0-2.6c0.9,0,1.7,0,2.6,0
			C13.6,141.3,13.6,142.1,13.6,143z"/>
		<path id="XMLID_79_" class="st5" d="M11,137.5c0-0.9,0-1.7,0-2.5c0.9,0,1.7,0,2.6,0c0,0.8,0,1.7,0,2.5
			C12.7,137.5,11.9,137.5,11,137.5z"/>
		<path id="XMLID_78_" class="st5" d="M13.6,145.9c0,0.9,0,1.7,0,2.6c-0.8,0-1.7,0-2.6,0c0-0.8,0-1.7,0-2.6
			C11.8,145.9,12.7,145.9,13.6,145.9z"/>
		<path id="XMLID_77_" class="st4" d="M25.9,154.2c0.7,0.1,1.2,0.2,1.8,0.4c0.1,0,0.3,0.2,0.3,0.3c0.1,0.6,0.3,1.2,0.4,1.9
			c-0.9,0.3-1.7,0.5-2.5,0.7c-0.5,0.1-0.9-0.3-0.8-0.8C25.4,155.8,25.6,155,25.9,154.2z"/>
	</g>
	<rect id="XMLID_11_" x="0.4" y="120.3" class="st1" width="40.1" height="40.1"/>
</g>
<g id="XMLID_25_">
</g>
<g id="XMLID_26_">
</g>
<g id="XMLID_27_">
</g>
<g id="XMLID_28_">
</g>
<g id="XMLID_29_">
</g>
<g id="XMLID_30_">
</g>
</svg>
