<?xml version="1.0" encoding="utf-8"?>
<!-- Generator: Adobe Illustrator 19.0.0, SVG Export Plug-In . SVG Version: 6.00 Build 0)  -->
<svg version="1.1" id="图层_1" xmlns="http://www.w3.org/2000/svg" xmlns:xlink="http://www.w3.org/1999/xlink" x="0px" y="0px"
	 viewBox="0 0 293.5 114.1" style="enable-background:new 0 0 293.5 114.1;" xml:space="preserve">
<style type="text/css">
	.st0{fill:#DABBD9;}
	.st1{fill:#E0221C;}
	.st2{fill:#CE1C23;}
	.st3{fill:#8AC221;}
	.st4{fill:#82AE2B;}
	.st5{fill:#F1BA34;}
	.st6{fill:#4C9BD5;}
	.st7{fill:#4190B9;}
</style>
<g id="XMLID_47_">
	<g id="XMLID_32_">
		<path id="XMLID_34_" class="st0" d="M27.8,41c-7.3-4.7-11-22,0-31.7s35.3-2,36,15.8s-14,19.5-14,19.5l2.7,6.3c0,0,5,1.3,5,5.5
			s-3.3,10.8-3.3,10.8s3.3,15,3.3,21.3c0,6.3-3.6,9.3-3.2,12.5s5.6,2.8,5.5,6.1s-8.5,4.8-12.1,3.9s-5-1.6-4-4.3s3-2.6,2.4-9.1
			S41.6,94,41.1,97s0.8,9.3,0,10.5s-1.8,4.4-7.8,3.9c-6-0.5-6.5-1.6-4.1-6c3.6-1.1,3.9-1.3,3.6-5.3s1-17.8-0.9-20.5s-1.5-11.5-4-11
			s-4.1-1.3-5.6-2s-4.9-2.9-4-7.3s6.1-6.5,6.9-8.3S27.8,41,27.8,41z"/>
		<polygon id="XMLID_35_" class="st1" points="0,45.4 55.9,36.6 58.5,48.1 38.8,52.7 0.9,52.7 		"/>
		<polygon id="XMLID_33_" class="st2" points="38.8,52.7 48.5,96.5 33.6,100.5 21.2,53.9 1.8,57 0.9,52.7 		"/>
		<path id="XMLID_36_" class="st0" d="M23.4,57.7c2.8,0,6.6-0.1,7,2.8s-1.5,6.9-4.8,6.5s-7-0.9-7.4-4.7
			C17.9,58.6,20.2,57.8,23.4,57.7z"/>
		<path id="XMLID_37_" class="st0" d="M52.8,52.7c-2.2,1.4-1.9,9.4-5.4,11c-4,0-6.9,0.3-10.9,2c-2.5,1.1-3.9,7.5-1.5,8.5
			c6.4,2.8,15-1.4,16.6-4.6s6.9-6.3,6.3-11.3S56.8,50.2,52.8,52.7z"/>
	</g>
	<g id="XMLID_43_">
		<path id="XMLID_40_" class="st0" d="M113.9,5.5c15.4,0,23,11,22.8,19.4s-4.8,16.6-14.9,21.6c-2.6,4.6-2.2,6.2,1.2,6.1
			s13.7,6.8,13.7,11.4c0,4.6-2.2,10.8-6.2,11.5c-4.1,0.7,1.2,10.9-0.5,16.6c-1.7,5.7,0.5,13.8-2,15.9s-6.3,2.9-8.6,0
			c-2.3-2.9-2.7-4.4-1.5-6.8c1.2-2.3,0.9-8.2,0.2-10.7c-0.7-2.5-3.7-3.6-4.8-0.3c-1.1,3.3,1,16.5,0,17.9c-1,1.4-9.9,4.5-12,1.7
			c-2.1-2.8,1.3-5.5,2.6-6.3c1.3-0.8,1.5-3,0.5-3.8c-1.1-0.8-2.9-5.9-3-9c-0.1-3.1-7-34.2-2.1-36.3s9.5-2.2,9.6-3.5
			c0.1-1.4,0.5-4,0.4-4.5c-0.1-0.5-16.6-5-17.3-19.5C91.3,13.3,104.8,5.5,113.9,5.5z"/>
		<polygon id="XMLID_39_" class="st3" points="87.9,34.7 133.9,35.5 133.9,48.9 103.9,47.9 103.7,51.3 87.9,51.3 		"/>
		<polygon id="XMLID_41_" class="st4" points="103.7,51.3 103.7,58.7 130.5,58.7 130.5,71.7 103.7,71.7 103.7,85.1 133,85.1 
			133,97.1 87.9,96.8 87.9,51.3 		"/>
		<path id="XMLID_42_" class="st0" d="M130.4,75.8c-1.3,1-4.2,0.7-5.4-2.6c-1.2-3.2,1.9-6,4.9-6.2c3-0.2,2.4-2.6,2-4.8
			c-0.4-2.2,0.4-3.8,1.9-3.3c1.6,0.5,3.1,4,2.8,6.2C136.4,67.3,131.7,74.8,130.4,75.8z"/>
		<path id="XMLID_44_" class="st0" d="M86.7,58.3c0,0,0.5,3.5,1.2,3.5s4.5-0.6,4.1,4.3c-0.5,4.9-2,4.9-4.1,5.5s-3-4-3-6.7
			S85.5,56.5,86.7,58.3z"/>
	</g>
	<g id="XMLID_38_">
		<ellipse id="XMLID_45_" class="st0" cx="181.4" cy="24.3" rx="20.6" ry="20.7"/>
		<path id="XMLID_46_" class="st0" d="M180.1,46.3c0,0,18,24.2,15.6,32.2c-2.4,7.9-8.2,22.3-7.7,26.2c0.5,3.8,4.3,5.2,2.9,7.6
			c-1.4,2.4-10.2,2.5-11.3,0c-1.1-2.5,1-6.7-1.3-16c-0.7-6.5,0.7-9.5,0-12.4c-0.7-2.9-1.4-0.1-1.4-0.1s0.6,9.2,0,10.9
			c-0.6,1.7-1.6,1.6-1.7,7c-0.1,5.4,1.4,3.8,1.1,6.1s-9.1,3.7-11.3,1.7s1.1-3.6,1.1-5.2c0-1.6,1.6-4.7,1.6-6.4s0-3.5-2.6-4.4
			s1.1-42.7,4.7-44.6C173.3,46.9,180.1,46.3,180.1,46.3z"/>
		<path id="XMLID_57_" class="st5" d="M185,36.4h-15.4l-20.6,62l13.6-0.7l4-14l24.6-0.6l6,12.4h16.8L185,36.4z M170.4,73.9l5.9-21.6
			l10.7,21.6H170.4z"/>
		<path id="XMLID_50_" class="st0" d="M163.4,49.1c-2.6,1.8-6.2,5.5-7.3,11.8c-1.1,6.2-2.6,11.3,1.8,10.7c4.4-0.5,7.9-0.9,7.6-5
			c-0.3-4.1-4.3-4.8-4.3-4.8S166.3,49.1,163.4,49.1z"/>
		<path id="XMLID_51_" class="st0" d="M194,49.7c0,0,5.2,5.5,6.4,7.7c1.2,2.2,2.9,4,1.7,5.3c-1.2,1.3-11.4,2-12.1-1.3
			s3.5-5.3,3.8-5.9C194.1,54.8,191.5,50.6,194,49.7z"/>
	</g>
	<g id="XMLID_65_">
		<circle id="XMLID_48_" class="st0" cx="253.5" cy="22.2" r="22.2"/>
		<path id="XMLID_58_" class="st0" d="M259.5,43.6c0,0-3.1,3.2,2.6,4s16.9,0,14.8,4.9s-9.5,16.7-9,21.4s-1.5,22.5-6.1,27.5
			c2.3,5.8,5.2,5.4,4.5,7.4c-0.7,2-6.8,5.9-11.3,2.2c-2.7-4.7-1.7-10.1-1.5-11.5c0.2-1.4,0.7-7.7,0.1-6.7c-0.5,1-3.4,8.2-3.1,10
			c0.2,1.9,1.6,9.3,0.5,9.8c-1,0.5-3.9,2.4-9,1.1c-5.1-1.3-4.1-3.3-1-6.2c3.2-2.9,1.8-6.7,1.1-7.7c-0.7-1-3.7-8.9-3.8-16.4
			s1.4-31.5,4.8-34.2s5.1-3.2,4.8-4.4c-0.3-1.1-2-2.9-0.7-3.1c1.3-0.2,11.4-1.4,11.6,0C259.1,43.1,259.5,43.6,259.5,43.6z"/>
		<polygon id="XMLID_49_" class="st6" points="223.5,37.5 240.7,37.4 248.4,53.6 222.7,53.6 		"/>
		<polygon id="XMLID_60_" class="st6" points="279.5,39 293.5,39 292.6,53.1 269.7,53.6 		"/>
		<polygon id="XMLID_66_" class="st7" points="292.6,53.1 290.5,100.7 274.9,100 277.2,61.3 261.5,84.7 250.5,84.9 236,58.9 
			233.4,98.3 220.2,97.9 222.6,53.6 248.4,53.6 255.9,67.7 269.5,53.6 		"/>
		<path id="XMLID_67_" class="st0" d="M237.3,61.2c0,0-1.7,2.9-0.9,5.5c0.8,2.6,4,7.2,7.5,6.4c3.5-0.8,5.4-5.1,3.9-8.8
			c-1.5-3.7-5-1.9-6.6-0.4S237.7,61.9,237.3,61.2z"/>
		<path id="XMLID_68_" class="st0" d="M269.1,62.9c-2.7,0.5-5.5,4-3.3,7.7c2.2,3.7,3.9,5,6.3,2c2.4-3.1,6-8.6,5-9.2
			c-0.9-0.6-2.9,1.2-3.9,1.2C272.1,64.6,270,62.7,269.1,62.9z"/>
	</g>
</g>
<g id="XMLID_14_">
</g>
<g id="XMLID_15_">
</g>
<g id="XMLID_16_">
</g>
<g id="XMLID_17_">
</g>
<g id="XMLID_18_">
</g>
<g id="XMLID_19_">
</g>
</svg>
