<?xml version="1.0" encoding="utf-8"?>
<!-- Generator: Adobe Illustrator 19.0.0, SVG Export Plug-In . SVG Version: 6.00 Build 0)  -->
<svg version="1.1" id="图层_1" xmlns="http://www.w3.org/2000/svg" xmlns:xlink="http://www.w3.org/1999/xlink" x="0px" y="0px"
	 viewBox="0 0 443.5 134.3" style="enable-background:new 0 0 443.5 134.3;" xml:space="preserve">
<style type="text/css">
	.st0{fill:#26A9C1;}
	.st1{fill:#219EBB;}
	.st2{fill:#1D859E;}
	.st3{fill:#FCFDFD;}
	.st4{fill:#DABBD9;}
</style>
<g id="XMLID_151_">
	<path id="XMLID_735_" class="st0" d="M443.5,9.6c-0.1,9.5-0.7,31.4-0.4,38.5c0,0.9-1.3,2-2.1,2c-6.2,0-12.3,0-18.5,0.1
		c-1.1-5.1-6.7-9.4-11.9-8.9c0.1,1.6,2.3,1,2.5,2.9c-2.6,0.1-5.1-0.1-7.6-0.6c-5.5-0.9-9.1,1.4-10.5,6.7c-4.9,0-9.9-0.2-14.8,0
		c-2.4,0.1-3.8-0.5-4-3c0-11.9,0-23.9,0-35.8c0-5.7-0.4-4.9,4.9-5c17.4,0.2,40.7,0.3,58.8,0C441.2,6.3,443.5,8.2,443.5,9.6z
		 M412.8,14.2C412.8,14.2,412.8,14.2,412.8,14.2c-2.3-0.1-4.5-0.1-6.8-0.1c-1.3,0-2.4,0.3-2.5,1.9c-0.1,2.7-0.1,5.5-0.2,8.2
		c0,0.4,0.1,1,0.7,1.1c0.7,0.2,1.2-0.3,1.3-0.9c0.3-1.7,0.7-3.5,0.7-5.3c0-2,0.9-2.4,2.6-2.4c1.8-0.1,2.6,0.6,2.5,2.4
		c-0.1,4.2-0.3,8.4,0.2,12.5c0.3,3.2-0.4,4.5-3.7,4c-0.7-0.1-1.9-0.3-2,0.9c-0.1,1.2,0.9,1.6,1.9,1.6c3.7-0.1,7.4-0.3,11-0.4
		c0.6,0,1.2-0.3,1.3-1c0.1-0.7-0.3-1.1-0.8-1.5c-1-0.6-2.1-0.4-3.1-0.1c-1,0.3-1.9,0.4-1.9-1.1c-0.1-5.1-0.2-10.2-0.3-15.3
		c-0.1-2.5,1.6-2.4,3.4-2.5c2.1-0.1,1.9,1.3,2,2.6c0.1,1.4,0.2,2.8,0.2,4.3c0,0.9,0.3,1.7,1.3,1.8c1.4,0.1,1.4-1,1.5-1.9
		c1-7.8,0.1-8.9-7.9-8.8C413.7,14.2,413.2,14.2,412.8,14.2z"/>
	<path id="XMLID_732_" class="st1" d="M39.2,69.2c-0.8-0.9,0.5-4.1-2.6-2.4c-0.1-0.2-0.3-0.4-0.4-0.5c0.2-0.4,0.4-0.8,0.7-1.2
		c0.5-0.7,1.8-1.2,1-2.2c-0.7-0.9-1.4,0.5-2.1,0.5c-4.4,0-6.6,2.4-7.5,6.5c-7.5,0.4-15,0.5-22.4,1.2c-2.6,0.2-3.2-0.5-3.4-2.9
		C1.7,56.7,0.9,45.3,0,33.9c-0.1-1.9,0.6-2.4,2.4-2.6c20.2-1.8,40.5-3.6,60.7-5.5c2.2-0.2,2.2,0.9,2.4,2.5c1,9.6,2,19.1,3,28.7
		c0.1,2.2,0,4.5,0.3,6.7c0.5,2.9-0.3,4.2-3.4,4.1c-1.9-0.1-3.8-0.4-5.6,0.6C52.9,67.6,46.1,68.6,39.2,69.2z M30.9,55.6
		c-0.6,0.1-0.9,0.2-1.3,0.2c-1.5-0.2-2.7,0.2-2.5,2c0.2,1.8,1.6,1.4,2.7,1.2c2.5-0.3,4.9-0.6,7.4-1c1-0.2,2-0.7,1.7-1.9
		c-0.2-0.9-1.2-1-2.1-0.9c-1,0-2.3,1.2-2.8-0.2c-0.6-1.6-1-3.6-0.6-5.2c0.3-1.6,2.2-0.6,3.4-0.9c0.5-0.1,1-0.1,1.4-0.1
		c3.5-0.5,6.5-3.6,6.4-6.6c-0.1-4.1-3.1-7.2-7.1-7.4c-3.8-0.2-7.5,1.3-11.3,0.9c-1.1-0.1-1.6,0.8-1.5,1.9c0.1,1,0.7,1.8,1.6,1.4
		c3-1.2,2.6,1.2,2.9,2.8C30.2,46.3,29.1,50.9,30.9,55.6z"/>
	<path id="XMLID_729_" class="st2" d="M381.1,6.3c-5.3,0.1-4.9-0.7-4.9,5c0,11.9,0,23.9,0,35.8c-4.9,0-9.7,0.1-14.6,0.1
		c-2-5.7-2.4-6-7.4-4.8c0.5,1.5,2.3,0.3,3,1.6c-2.7-0.3-4.4,1.2-5.9,3.1C341,47.1,330.6,47,320.2,47c-0.4,0-0.5-0.2-0.3-0.5
		c1.2-6.6,0.3-13.2,0.3-19.8c0-7.1-0.1-14.2-0.3-21.4c0-1.9,0.6-2.5,2.4-2.4C341,3,359.8,3,378.5,2.9C381.3,2.9,381.2,4.5,381.1,6.3
		z M356,18c-0.3-1.4,2.3-6.1-3.3-3.1c-0.2,0.1-0.8-0.4-1.2-0.6c-4-1.6-7.9-0.2-9.9,3.7c-2.8,5.3-2.8,10.6,0.4,15.9
		c1.8,3,4.2,4.3,7.7,4c3.3-0.3,5.7-1.6,6.7-4.8c0.5-1.6,2.7-3.8,0-4.8c-2.3-0.9-2.4,1.9-3.1,3.4c-0.8,1.9-2.2,3.5-4.4,3.7
		c-2,0.2-3.1-1.3-4.2-2.8c-3.1-4.4-3-9.8,0.3-14.3c0.9-1.2,2.1-2.5,3.8-2.1c2,0.4,3.4,1.8,3.8,3.8c0.3,1.4,0,3.4,1.8,3.3
		c2.3-0.2,1.1-2.4,1.4-3.7C356,19.2,356,18.8,356,18z"/>
	<path id="XMLID_726_" class="st0" d="M254.1,45.6c-0.1-1.2-0.3-2.3,0.2-3.5c0.2,0,0.6-0.2,0.7,0c1.3,1.3,3.2,1.8,4.2,0.4
		c1-1.4,0.9-3.4-1.1-4.6c-0.7-0.4-1.3-1.1-1.8-1.7c-0.6-0.8-2.6,0-2.1-1.7c0.4-1.7,2-0.5,3.3-0.7c-1.2-2.2-3.5-1.5-5-2.5
		c-0.5-3.4-0.9-6.8-1.4-10.2c-0.3-1.8,0.3-2.5,2.2-2.7c17.7-1.7,35.5-3.5,53.2-5.4c1.8-0.2,2.2,0.5,2.5,2.1
		c0.9,5.7,1.9,11.5,2.9,17.2c-1,0.5-2.4,0.2-3,1.6c0.6,0.7,1.3,0.2,2,0.2c0.8,0,1.8,0,1.8,1.2c0.1,1.5-1.1,0.6-1.7,0.7
		c-1.7,0.4-2.8,1.7-4.2,2.6c-1.1,0.7-0.6,1.7-0.1,2.5c0.8,1.3,2.2,2.5,3.5,1.9c2.8-1.2,3.1,0,2.9,2.3c-0.2,2,2,3.3,1.6,5.3
		c-2.8,0.3-5.6,0.7-8.5,1c-15.7,1.8-31.5,3.5-47.2,5.3c-2.1,0.2-3-0.4-3.3-2.5C255.3,51.6,255.6,48.4,254.1,45.6z M270.5,24.2
		c0.9,1.1,1.9,0.8,2.7,0.7c1.5-0.2,2.1,0.3,2.3,1.8c0.6,4.5,1.4,8.9,2.1,13.3c0.3,1.6,0.6,3-1.9,2.9c-1-0.1-1.9,0.6-1.6,1.8
		c0.3,1.1,1.3,0.9,2.1,0.7c3.5-0.6,7-1.1,10.5-1.8c5.5-1.1,5.4-1.2,5.2-6.7c0-1,0-2.3-1-2.3c-1.5,0-1.3,1.5-1.1,2.5
		c0.5,3-1,3.9-3.6,4.3c-6,0.8-5.9,0.9-6.8-5.2c-0.2-1.1-0.6-2.3,1-2.5c1.2-0.1,2.7-0.9,3.5,0.8c0.4,0.8,0.4,2.2,1.7,1.7
		c1.2-0.5,0.7-1.9,0.5-2.9c-0.2-1.4-0.5-2.8-0.9-4.2c-0.2-0.6-0.7-1.3-1.6-1.2c-1,0.1-0.9,0.9-0.7,1.6c0.5,1.8-1,1.9-2,2.3
		c-0.8,0.3-1.8,0.5-2.5-0.5c-2.2-2.9-0.8-6.9,2.8-7.5c0.6-0.1,1.2-0.1,1.8-0.2c2.3-0.4,4.9-1.5,4.8,2.6c0,0.8,0.8,1.1,1.6,1.1
		c0.9-0.1,1.1-0.8,1.1-1.5c0.3-3.1-1.8-5.3-4.8-4.9c-4,0.6-8,1.3-11.9,2C272.5,22.8,271.4,23.1,270.5,24.2z"/>
	<path id="XMLID_723_" class="st2" d="M152.8,54.8c-1-1.7-2.8-3.1-2.5-5.4c-0.5,0-0.9,0.1-0.9,0.1c0.3,4-3.3,4.1-5.6,5.4
		c-0.2,0-0.5-0.1-0.7-0.1c-7.4-0.6-7.4-0.6-7.4-8c0-10.1,0.1-20.2-0.1-30.3c0-2.5,0.7-3.2,3.2-3.2c16.4,0.1,32.8,0.1,49.2,0
		c2.9,0,3.3,1,3.2,3.5c-0.1,11.3-0.2,22.6,0,33.9c0.1,3.3-0.9,4.5-4.1,4c-1-0.2-2.1,0-3.2,0c0-1.7-0.3-3.3-1-4.8
		c-1.1-2.6-3-3.1-5.5-2c0.2,1.1,1.2,0.4,1.7,0.9c0,0.1,0,0.4-0.2,0.4c-2.1,1.3-4.5,2.4-3,5.6C168.3,54.8,160.6,54.8,152.8,54.8z
		 M172.8,35.3c-0.1-3.9-0.9-7.5-3.7-10.5c-2.9-3.1-8.1-3-10.7,0.3c-2.8,3.7-4.1,8-3,12.7c1.3,5.5,5.1,8.4,9.8,7.7
		C169.2,45.1,173,39.8,172.8,35.3z"/>
	<path id="XMLID_720_" class="st1" d="M251.1,33.7c-2.5,1.9-2.9,4.6-2.8,7.5c-3.3,0.1-6.6,0.3-9.9,0.4c-2.4-6.9-5.2-9.6-9.7-9.2
		c-0.4,1.6,1.9,2,1.7,3.6c-0.7,0.5-1.1-0.2-1.6-0.3c-0.7-0.1-1.3-1.5-2-0.2c-0.4,0.7-1.1,1.7,0.1,2.5c2.1,1.4,1.2,3,0.5,4.7
		c-8.9,0.6-17.8,1-26.6,1.8c-2.4,0.2-2.9-0.6-3.1-2.6c-1-11.3-2-22.7-3.1-34c-0.2-1.9,0-3,2.4-3.1c16-0.8,32-1.7,48-2.7
		c3.1-0.2,3.8,0.8,3.9,3.7c0.3,8.7,1,17.3,1.5,25.9C250.6,32.4,250.9,33,251.1,33.7z M223.5,25.7c-0.2,1-0.1,2.4-0.7,3.5
		c-1.3,2.5-3.6,2.5-5.8,1.3c-1.3-0.7-2.9-1.8-1.5-3.6c0.7-1,1.8-1.6,0.6-2.9c-0.6-0.7-1.4-0.8-2.3-0.6c-1.5,0.4-1.9,1.5-2,3
		c-0.1,3.2,2.3,6.3,5.4,7c3.9,0.8,7.1-0.9,8.1-4.5c1.2-4.2,0.5-8.5-0.4-12.7c-0.5-2.3-1.1-4.7,2.7-4.3c0.9,0.1,1.7-0.3,1.7-1.4
		c0-1.1-1.1-1.3-1.9-1.2c-2.8,0.2-5.7,0.4-8.5,0.8c-0.9,0.1-2.1,0.5-1.9,1.7c0.2,1.2,1.5,1.1,2.4,0.8c1.6-0.4,3-0.3,2.8,1.8
		C222.3,18.2,223.2,21.8,223.5,25.7z"/>
	<path id="XMLID_717_" class="st0" d="M124.5,42.3c-1.1-1.4-1.7-3.4-3.5-4.3c-1.5,2,0.9,3.3,0.3,6.3c-1.5-1.8-2.5-3.2-3.6-4.4
		c-0.5-0.6-1.3-1.3-2.1-0.4c-0.5,0.6,0,1.3,0.5,1.9c0.2,0.3,0.5,0.5,0.7,0.8c0.6,1,2.1,1.9,1.5,3c-0.7,1.2-2.1,0.1-3.2,0
		c-1-0.1-2.6-0.8-2.8,0.2c-0.2,1-0.3,2.8,1,3.7c3.2,1.9,2.5,5.6,3.7,8.4c0.8,1.9-1.4,1.5-2.6,1.5c-3.3-2.8-7.4-4.2-11.2-6.2
		c-10.9-5.7-22-11.4-33-16.9c-2-1-2.4-1.8-1.4-4c4.7-9.9,9.3-19.8,13.8-29.7c1.2-2.6,2.3-2.6,4.5-1.4c14.3,7.8,28.6,15.5,43,23.2
		c2.4,1.3,3.1,2.3,1.6,4.8C129.2,33.2,126.9,37.8,124.5,42.3z M109.8,28.7c-0.5-2.5-0.9-5.4-3.9-6.8c-2.7-1.3-5.3-2.6-8-3.9
		c-0.9-0.4-1.8-0.9-2.5,0.3c-0.5,1,0.2,1.7,1,1.9c2.3,0.9,1.5,2.1,0.6,3.5c-2,3.2-4,6.5-5.8,9.8c-1,1.7-1.6,3.7-4.1,1.7
		c-0.7-0.6-1.4-0.3-1.8,0.3c-0.6,0.8,0.1,1.3,0.6,1.7c2.1,1.3,4.2,2.7,6.4,3.9c0.7,0.4,1.7,0.3,2.2-0.6c0.5-0.9-0.3-1.2-0.8-1.6
		c-0.6-0.5-2-0.7-1.5-1.7c0.9-1.8,1.3-4.8,3.5-4.8c1.8,0,3.2,2.1,3.4,4.4c0.1,1.4-0.2,2.5-0.9,3.7c-1.4,2.3-0.3,4.8,2.2,5.6
		c0.9,0.3,1.7,0,2.2-0.8c0.6-0.8,0.5-1.6-0.6-2c-1.9-0.6-1.3-1.6-0.6-2.7c0.6-0.9,0.8-2,0.6-3.1c-0.4-2,0.3-2.7,2.4-2.7
		C107.3,34.8,109.8,31.9,109.8,28.7z"/>
	<path id="XMLID_627_" class="st1" d="M409.7,50.1c-0.9,0-1.8,0-2.7,0c-0.5-0.6-1-1.2-2.1-2.5c3.1,1.1,5.6-0.6,8,1.1
		C411.9,49.7,410.3,48.7,409.7,50.1z"/>
	<path id="XMLID_625_" class="st3" d="M44.7,111.2c0.1-0.3,0.1-0.6,0.5-0.4c0.1,0.1-0.1,0.5-0.1,0.8C45,111.5,44.9,111.4,44.7,111.2
		z"/>
	<path id="XMLID_624_" class="st1" d="M36.6,66.8c-0.3,0-0.8,0.2-0.8,0.1c-0.2-0.4,0.1-0.5,0.4-0.7C36.3,66.4,36.5,66.6,36.6,66.8z"
		/>
	<path id="XMLID_616_" class="st3" d="M412.8,14.2c0.5,0,1,0,1.4,0c7.9,0,8.9,1,7.9,8.8c-0.1,0.9-0.1,2-1.5,1.9
		c-1-0.1-1.3-0.8-1.3-1.8c0-1.4-0.1-2.9-0.2-4.3c-0.1-1.3,0.1-2.7-2-2.6c-1.8,0.1-3.4,0.1-3.4,2.5c0.1,5.1,0.2,10.2,0.3,15.3
		c0,1.5,0.9,1.4,1.9,1.1c1-0.3,2.1-0.5,3.1,0.1c0.5,0.3,0.9,0.8,0.8,1.5c-0.1,0.7-0.6,1-1.3,1c-3.7,0.2-7.4,0.3-11,0.4
		c-1.1,0-2-0.4-1.9-1.6c0.1-1.2,1.2-1,2-0.9c3.3,0.5,4-0.8,3.7-4c-0.4-4.1-0.2-8.3-0.2-12.5c0-1.9-0.7-2.5-2.5-2.4
		c-1.7,0.1-2.6,0.4-2.6,2.4c0,1.8-0.4,3.5-0.7,5.3c-0.1,0.6-0.6,1.1-1.3,0.9c-0.6-0.2-0.7-0.7-0.7-1.1c0-2.7,0.1-5.5,0.2-8.2
		c0.1-1.6,1.2-1.9,2.5-1.9C408.2,14.1,410.5,14.1,412.8,14.2C412.8,14.2,412.8,14.2,412.8,14.2z"/>
	<path id="XMLID_613_" class="st3" d="M30.9,55.6c-1.8-4.7-0.7-9.3-1.6-13.7c-0.3-1.6,0.1-3.9-2.9-2.8c-0.9,0.4-1.5-0.5-1.6-1.4
		c-0.1-1.1,0.4-2.1,1.5-1.9c3.9,0.4,7.5-1,11.3-0.9c4,0.2,7,3.3,7.1,7.4c0.1,3-2.9,6-6.4,6.6c-0.5,0.1-1,0-1.4,0.1
		c-1.2,0.2-3.1-0.7-3.4,0.9c-0.3,1.7,0,3.6,0.6,5.2c0.5,1.4,1.8,0.2,2.8,0.2c0.9,0,1.8,0,2.1,0.9c0.3,1.2-0.7,1.7-1.7,1.9
		c-2.5,0.4-4.9,0.7-7.4,1c-1.1,0.1-2.5,0.6-2.7-1.2c-0.2-1.9,0.9-2.2,2.5-2C29.9,55.8,30.3,55.7,30.9,55.6z M32.1,39.6
		c0.1,0.7,0.1,1.5,0.4,2.1c0.7,1.7-1.3,4.5,1.3,5.2c1.7,0.4,3.9-0.7,5.8-1.3c1.7-0.6,2.2-2.1,2-3.7c-0.4-3.4-6.4-5.8-9.1-3.8
		C32,38.4,32.1,39,32.1,39.6z"/>
	<path id="XMLID_612_" class="st3" d="M356,18c0,0.8,0.1,1.1,0,1.5c-0.3,1.4,0.8,3.6-1.4,3.7c-1.8,0.1-1.5-1.9-1.8-3.3
		c-0.4-2-1.9-3.3-3.8-3.8c-1.8-0.4-2.9,0.8-3.8,2.1c-3.4,4.5-3.4,9.9-0.3,14.3c1.1,1.5,2.1,3,4.2,2.8c2.2-0.2,3.5-1.8,4.4-3.7
		c0.7-1.5,0.7-4.3,3.1-3.4c2.6,1,0.5,3.2,0,4.8c-1,3.2-3.4,4.6-6.7,4.8c-3.5,0.3-5.9-1-7.7-4c-3.1-5.3-3.1-10.6-0.4-15.9
		c2-3.9,5.9-5.2,9.9-3.7c0.4,0.2,1,0.7,1.2,0.6C358.2,11.9,355.6,16.6,356,18z"/>
	<path id="XMLID_611_" class="st3" d="M270.5,24.2c0.9-1.1,2.1-1.4,3.3-1.6c4-0.6,7.9-1.4,11.9-2c3-0.4,5.1,1.8,4.8,4.9
		c-0.1,0.8-0.3,1.5-1.1,1.5c-0.8,0.1-1.6-0.3-1.6-1.1c0.1-4.1-2.5-3-4.8-2.6c-0.6,0.1-1.2,0.1-1.8,0.2c-3.6,0.7-5,4.6-2.8,7.5
		c0.7,1,1.7,0.9,2.5,0.5c1-0.4,2.5-0.5,2-2.3c-0.2-0.7-0.3-1.5,0.7-1.6c0.8-0.1,1.4,0.6,1.6,1.2c0.4,1.4,0.7,2.8,0.9,4.2
		c0.2,1,0.7,2.4-0.5,2.9c-1.3,0.5-1.3-0.9-1.7-1.7c-0.8-1.6-2.3-0.9-3.5-0.8c-1.6,0.1-1.2,1.4-1,2.5c0.9,6.1,0.8,6,6.8,5.2
		c2.7-0.4,4.1-1.3,3.6-4.3c-0.2-0.9-0.4-2.5,1.1-2.5c1.1,0,1,1.4,1,2.3c0.3,5.6,0.3,5.6-5.2,6.7c-3.5,0.7-7,1.3-10.5,1.8
		c-0.8,0.1-1.8,0.4-2.1-0.7c-0.4-1.3,0.6-1.9,1.6-1.8c2.5,0.1,2.2-1.3,1.9-2.9c-0.7-4.4-1.5-8.9-2.1-13.3c-0.2-1.5-0.8-2.1-2.3-1.8
		C272.4,25,271.3,25.3,270.5,24.2z"/>
	<path id="XMLID_608_" class="st3" d="M172.8,35.3c0.2,4.5-3.6,9.7-7.5,10.3c-4.7,0.7-8.5-2.3-9.8-7.7c-1.1-4.7,0.2-9,3-12.7
		c2.5-3.3,7.7-3.4,10.7-0.3C171.9,27.8,172.7,31.4,172.8,35.3z M170.5,34c0.2-4.2-2.7-8.2-6-8.4c-3.6-0.3-6.5,3.4-6.8,8.4
		c-0.2,4.1,2.9,8.8,5.9,8.9C167.2,43.1,170.3,39.1,170.5,34z"/>
	<path id="XMLID_607_" class="st3" d="M223.5,25.7c-0.3-4-1.2-7.6-1-11.3c0.1-2.1-1.2-2.2-2.8-1.8c-0.9,0.2-2.1,0.4-2.4-0.8
		c-0.2-1.2,1-1.6,1.9-1.7c2.8-0.4,5.7-0.6,8.5-0.8c0.8-0.1,1.8,0.1,1.9,1.2c0,1-0.8,1.5-1.7,1.4c-3.8-0.4-3.2,2-2.7,4.3
		c1,4.2,1.6,8.4,0.4,12.7c-1,3.6-4.2,5.3-8.1,4.5c-3.2-0.6-5.6-3.8-5.4-7c0.1-1.5,0.5-2.6,2-3c0.9-0.2,1.6-0.1,2.3,0.6
		c1.2,1.3,0.1,2-0.6,2.9c-1.4,1.8,0.2,2.9,1.5,3.6c2.2,1.1,4.5,1.2,5.8-1.3C223.4,28.2,223.3,26.8,223.5,25.7z"/>
	<path id="XMLID_604_" class="st3" d="M109.8,28.7c0,3.2-2.5,6.1-5.5,6.2c-2.1,0.1-2.8,0.8-2.4,2.7c0.2,1.1,0,2.1-0.6,3.1
		c-0.7,1.1-1.3,2.1,0.6,2.7c1,0.3,1.1,1.1,0.6,2c-0.5,0.7-1.2,1-2.2,0.8c-2.5-0.7-3.5-3.2-2.2-5.6c0.7-1.2,1.1-2.3,0.9-3.7
		c-0.2-2.3-1.6-4.5-3.4-4.4c-2.2,0-2.6,3-3.5,4.8c-0.5,1,0.9,1.2,1.5,1.7c0.6,0.4,1.3,0.8,0.8,1.6c-0.5,0.9-1.4,1-2.2,0.6
		c-2.2-1.2-4.3-2.5-6.4-3.9c-0.6-0.4-1.2-0.9-0.6-1.7c0.5-0.7,1.1-0.9,1.8-0.3c2.4,2,3.1,0,4.1-1.7c1.8-3.3,3.8-6.6,5.8-9.8
		c0.9-1.4,1.8-2.6-0.6-3.5c-0.8-0.3-1.5-0.9-1-1.9c0.6-1.2,1.6-0.7,2.5-0.3c2.7,1.3,5.3,2.7,8,3.9C109,23.4,109.3,26.2,109.8,28.7z
		 M102.3,32.6c3.5,0.4,3.9-2.1,4.4-4.2c0.4-1.8-2.9-5.1-5.2-5.6c-1-0.2-5.1,4.6-4.8,6.3C97.4,32.2,100.7,31.4,102.3,32.6z"/>
	<path id="XMLID_597_" class="st1" d="M32.1,39.6c0-0.6-0.1-1.1,0.5-1.6c2.7-2.1,8.7,0.4,9.1,3.8c0.2,1.7-0.3,3.2-2,3.7
		c-1.9,0.6-4.1,1.7-5.8,1.3c-2.6-0.6-0.6-3.4-1.3-5.2C32.2,41,32.2,40.3,32.1,39.6z"/>
	<path id="XMLID_596_" class="st2" d="M170.5,34c-0.2,5.1-3.3,9.1-6.9,9c-3-0.1-6.1-4.8-5.9-8.9c0.3-5.1,3.2-8.7,6.8-8.4
		C167.8,25.9,170.7,29.9,170.5,34z"/>
	<path id="XMLID_595_" class="st0" d="M102.3,32.6c-1.6-1.3-5-0.4-5.5-3.5c-0.3-1.7,3.8-6.5,4.8-6.3c2.3,0.5,5.6,3.8,5.2,5.6
		C106.3,30.6,105.8,33,102.3,32.6z"/>
	<path id="XMLID_153_" class="st4" d="M133.5,129.2C133.5,129.2,133.5,129.2,133.5,129.2c0-0.1,0-0.2,0-0.3c0-3-1.8-6-0.3-9.1
		c1.2-2.5,1.7-5.2,2.1-7.9c1.1-7,2.6-13.9-0.2-21c-2.9-7.5-5.4-15.2-7.7-22.9c-1.6-5.5-4.6-10.8-3.2-16.9c0.7-3,0.8-5.9,0.3-8.8
		c-1.1-1.4-1.7-3.4-3.5-4.3c-1.5,2,0.9,3.3,0.3,6.3c-1.5-1.8-2.5-3.2-3.6-4.4c-0.5-0.6-1.3-1.3-2.1-0.4c-0.5,0.6,0,1.3,0.5,1.9
		c0.2,0.3,0.5,0.5,0.7,0.8c0.6,1,2.1,1.9,1.5,3c-0.7,1.2-2.1,0.1-3.2,0c-1-0.1-2.6-0.8-2.8,0.2c-0.2,1-0.3,2.8,1,3.7
		c3.2,1.9,2.5,5.6,3.7,8.4c0.8,1.9-1.4,1.5-2.6,1.5c-2.9-0.3-5.3,1.2-7.8,2c-2.1,0.6-2.8,3.8-1.2,5.3c1.2,1.2,0.8,2.2,0.2,3.2
		c-2.3,4.1-2.3,8.5-0.6,12.5c1.5,3.5,0.7,5.6-2,7.7c-1.4,1.1-2.9,1.7-4.5,1.9c-2.7,0.4-4.6,1.8-5.9,4.2c-0.8,1.5-1.3,1.9-2.7,0.5
		c-2.8-2.9-6.4-4.8-10.1-6.5c-2.9-1.3-3.5-4.8-0.7-6.3c1.7-1,2.3-2.3,2.7-3.9c0.6-2.3,1-4.6,1.5-7C85.4,61.5,78,54,68.5,57
		c0.1,2.2,0,4.5,0.3,6.7c0.5,2.9-0.3,4.2-3.4,4.1c-1.9-0.1-3.8-0.4-5.6,0.6c-1.2,4.1-2.5,8.2-1.6,12.5c0.4,1.9-0.9,2.9-2.2,3.6
		c-4.4,2.5-8.8,4.9-14.2,4.4c-1-0.1-1.9,0.2-2-1.2c-0.2-5.1-0.7-10-2.8-14.8c-0.8-1.7,2-2.1,2.1-3.8c-0.8-0.9,0.5-4.1-2.6-2.4
		c-0.3,0-0.8,0.2-0.8,0.1c-0.2-0.4,0.1-0.5,0.4-0.7c0.2-0.4,0.4-0.8,0.7-1.2c0.5-0.7,1.8-1.2,1-2.2c-0.7-0.9-1.4,0.5-2.1,0.5
		c-4.4,0-6.6,2.4-7.5,6.5c0.1,1.5,0.3,2.8,1.6,4c3.5,3.2,3.5,4.4,1,8.8c-0.3,0.6-0.3,1.4-0.2,2.1c0.2,1.8-0.2,3.5-0.6,5.3
		c-1.3,6-2.2,12.1-1.6,18.3c0.5,5.9,5.7,9,11.2,6.9c2.2-0.9,3.4-2.8,5.2-3.9c0.1-0.3,0.1-0.6,0.5-0.4c0.1,0.1-0.1,0.5-0.1,0.8
		c-0.3,6.5-1.9,12.9-1.9,19.5c0,2.5,0.7,3.1,3.2,3.1c29.1,0,58.2,0,87.4,0C133.7,132.4,133.4,129.8,133.5,129.2z"/>
	<path id="XMLID_158_" class="st4" d="M214.2,127.4c0.5-6,0.6-12.1,1.4-18.1c0.5-3.6,2.4-6.8,5.7-8.6c4.1-2.4,6.8-6.6,11.1-8.7
		c1.3-0.6,1-2.3,0.9-3.6c-0.2-2.7,0.4-5.1,1.9-7.4c1-1.5,1.1-3.3,1.2-5.1c0.3-6.1-0.7-12.2-1.9-18.1c-1.3-6.2-0.2-11.5,3.9-16.2
		c-2.4-6.9-5.2-9.6-9.7-9.2c-0.4,1.6,1.9,2,1.7,3.6c-0.7,0.5-1.1-0.2-1.6-0.3c-0.7-0.1-1.3-1.5-2-0.2c-0.4,0.7-1.1,1.7,0.1,2.5
		c2.1,1.4,1.2,3,0.5,4.7c1.3,10.3,0.2,20.6-0.1,31c-0.1,2.4-0.4,4.5-3.7,4.1c-1.3-0.2-2.3,0.9-3.3,1.9c-3.3,3.3-8,4.9-11,8.9
		c-0.6-1.3-0.1-2,0-2.6c1.4-5.9,3.5-11.8-1.3-17.5c-3.3-3.9-7.5-6.6-11.5-4.9c-6.6,2.7-10.6,4.7-11.1,11.2c-0.3,3.9,1,7.2,2.7,10.5
		c0.5,0.9,1.7,2.1,0.3,2.8c-2.2,1.1-3.5,3.4-5.8,4.8c0.2-2.2,0.1-4,0.4-5.7c1.3-7.6,1-15.2-0.1-22.7c-0.5-3.4-0.5-6.6,0.9-9.7
		c0-1.7-0.3-3.3-1-4.8c-1.1-2.6-3-3.1-5.5-2c0.2,1.1,1.2,0.4,1.7,0.9c0,0.1,0,0.4-0.2,0.4c-2.1,1.3-4.5,2.4-3,5.6
		c2.1,1.5,2.6,3.9,2.4,6.1c-0.7,12.1-1.8,24.1-4.4,35.9c-0.1,0.3-0.3,0.5-0.9,1c1.3-8.2-3.4-12.2-10.1-13.7c-4.4-1-8.1,1.8-10.7,6.1
		c-1.4-2-1.2-4.1-1.4-6c-0.5-5.3-1-10.6-1.4-16c-0.4-4.8,0.4-9.4,3.1-13.5c-1-1.7-2.8-3.1-2.5-5.4c-0.5,0-0.9,0.1-0.9,0.1
		c0.3,4-3.3,4.1-5.6,5.4c0.1,2,0.2,4,0.2,6c-0.1,6.6-0.3,13.3-0.6,19.9c-0.1,2.7,0.5,5.3,0.5,8.1c-0.2,8.8-2,17.7,0.3,26.3
		c1.2,4.5-0.1,8.7-0.6,13c0,0.3-0.1,0.6-0.2,0.8c0,0,0,0,0,0c-0.2,1.2,0.2,3.7,0.2,5.2c23.5,0,46.9,0,70.4,0
		C214,131.7,214.1,128.7,214.2,127.4z"/>
	<path id="XMLID_161_" class="st4" d="M434.1,128.5L434.1,128.5c0-0.3,0-0.6,0.1-1c1.7-10,3.3-20.1,6.3-29.8c2.9-9.3,1-17.1-5-24.5
		c-4-4.9-7.4-10.2-11-15.4c-1.6-2.3-1.7-5.1-1.9-7.9c-1.1-5.1-6.7-9.4-11.9-8.9c0.1,1.6,2.3,1,2.5,2.9c-2.6,0.1-5.1-0.1-7.6-0.6
		c-5.5-0.9-9.1,1.4-10.5,6.7c-0.1,7-5,11.3-9,16c-2.8,3.3-5.7,6.4-7.3,11c-2.7-5.4-6.3-9.7-9.2-14.6c-1.2-2-3.5-2.2-4.9-4
		c-2.7-3.5-3.4-7.2-3.1-11.4c-2-5.7-2.4-6-7.4-4.8c0.5,1.5,2.3,0.3,3,1.6c-2.7-0.3-4.4,1.2-5.9,3.1c0,0.6-0.3,1.5,0,1.7
		c6.3,5.2,6,13.2,8.1,20c1.1,3.6,3,6.8,4.6,10.5c-4.2-0.1-8-0.1-11.8,1.2c-3.7,1.2-8.5-4.2-7.3-8.1c0.9-2.7,2.7-5.1,0.3-8
		c-0.6-0.7-0.1-2.3,0-3.5c0.1-2.4,0.9-4.9-1.9-6.6c-3.2-2-6.5-3.6-10.3-2.7c-5.9,1.3-7.4,3.1-8.4,9.1c-1.4-4.5-2.8-9.1-4.3-13.7
		c-0.4,0-0.5-0.2-0.3-0.5c-0.5-2.6-0.7-5.4-1.5-7.9c-1-3.1-2.4-6.2-6.5-6.2c-1,0.5-2.4,0.2-3,1.6c0.6,0.7,1.3,0.2,2,0.2
		c0.8,0,1.8,0,1.8,1.2c0.1,1.5-1.1,0.6-1.7,0.7c-1.7,0.4-2.8,1.7-4.2,2.6c-1.1,0.7-0.6,1.7-0.1,2.5c0.8,1.3,2.2,2.5,3.5,1.9
		c2.8-1.2,3.1,0,2.9,2.3c-0.2,2,2,3.3,1.6,5.3c1,8.6,2.1,17.2,3,25.8c0.5,5.1-6.9,13-11.9,13.1c-2.3,0-4.9-2.8-4.8-5.2
		c0.2-3.1,0.5-5.9,2.6-8.9c4.2-5.7-2.1-17.6-9.2-18.2c-2.7-0.3-5.2,0.2-6.9,2.7c-1.2,1.8-2.7,3.1-4.8,4.1c-2.7,1.3-2.8,3.5-0.4,5.3
		c0.8,0.6,1,1.2,0.9,2.1c-0.4,4.6,1.5,8.6,3.4,12.5c0.7,1.4,1.8,3,0,4.5c-1.7,1.4-2.5-0.2-3.9-0.7c-2.7-1.1-5.7-1.7-8.6-2
		c-3.3-0.3-5.5-2-7.8-4.1c-2.1-1.9-5-3-7.6-4.4c-2.4-1.3-3.6-3-3.5-5.9c0.1-5.9-0.9-11.8-1.8-17.7c-0.4-2.6-1.1-5.4,0.5-8
		c-0.1-1.2-0.3-2.3,0.2-3.5c0.2,0,0.6-0.2,0.7,0c1.3,1.3,3.2,1.8,4.2,0.4c1-1.4,0.9-3.4-1.1-4.6c-0.7-0.4-1.3-1.1-1.8-1.7
		c-0.6-0.8-2.6,0-2.1-1.7c0.4-1.7,2-0.5,3.3-0.7c-1.2-2.2-3.5-1.5-5-2.5c-0.5,0.8-1,1.6-1.5,2.4c-2.5,1.9-2.9,4.6-2.8,7.5
		c-0.8,7.7-1.7,15.3-2.4,23c-0.3,4-0.3,8.1-0.4,12.1c0,1.8,0.8,3.5,2.1,4.8c1.3,1.3,2.5,2.6,3.8,3.8c3.3,3.2,5.7,6.5,3.5,11.4
		c-0.9,2-0.2,3.8,1.9,5.1c4.3,2.6,6.4,7.7,11,10.1c1.1,0.6,0.6,1.9,0.6,3c-0.2,4.4-1.2,8.8-0.3,13.3c0.5,2.2,1.7,4.5,1.9,6.5
		c31,0,61.9,0,92.9,0c-0.4-2.1-0.2-4.3-0.1-5.8c0-0.1,0-0.1,0-0.2c0-0.2,0-0.4,0-0.7c0.5-5.2,0.5-10.4,3-15.2
		c2-3.9,2.4-8.4,4.2-12.4c0.9-2,2-3.7,4.2-5.8c-0.7,4,0.6,6.3,2.3,8.8c4.8,7.6,8.1,15.7,7.3,25c0,2.3,0.1,4.4,0.1,6.2
		c16.7,0,33.5,0,50.2,0C433.9,131.9,434.1,129.5,434.1,128.5z M424.4,80.7c-0.9,2.6-2.4,5.1-0.5,8c0.9,1.3-1.1,2.2-1.9,2.4
		c-1.4,0.3-2.2,1.2-3.5,2.4c-0.8-5.9-0.7-11.5,0-17c1.3-9.5-5.5-15.8-14.8-13.5c-2.3,0.5-4.6,1.4-6.3,3.1c-1,2.1-2.1,4.2-3.1,6.3
		c-0.5,4,0,8,1.4,11.8c0.3,0.9,0.5,2,1.9,2.2c1.8,0.2,1.5,1.9,1.5,3.1c0,1.4-1.2,2.1-2.2,2.4c-2.8,1-7-2.5-7-5.5
		c0-5.1,2.2-9.5,3.8-14.1c0.7-2.5,1.8-4.8,3.1-7.1c0.6-1.8,1.5-3.4,3-4.7c1.3-1.2,2.4-2.6,2.5-4.5c0.1-1,0.3-1.8,1.3-1.7
		c3.5,0.4,3-2.3,3.5-4.3c-0.5-0.6-1-1.2-2.1-2.5c3.1,1.1,5.6-0.6,8,1.1c-0.9,1-2.5,0-3.1,1.3c0.8,0.9,1.9,0.9,2.9,1.1
		c1.1,0.2,2.2,0.7,2.4,1.8c1.9,8.2,7.3,15,9.3,23.1C424.7,77.8,424.9,79.2,424.4,80.7z"/>
</g>
<g id="XMLID_14_">
</g>
<g id="XMLID_15_">
</g>
<g id="XMLID_16_">
</g>
<g id="XMLID_17_">
</g>
<g id="XMLID_18_">
</g>
<g id="XMLID_19_">
</g>
</svg>
